<?xml version="1.0" standalone="no"?><!DOCTYPE svg PUBLIC "-//W3C//DTD SVG 1.1//EN" "http://www.w3.org/Graphics/SVG/1.1/DTD/svg11.dtd"><svg t="1503555429179" class="icon" style="" viewBox="0 0 1024 1024" version="1.1" xmlns="http://www.w3.org/2000/svg" p-id="2182" xmlns:xlink="http://www.w3.org/1999/xlink" width="200" height="200"><defs><style type="text/css"></style></defs><path d="M724.243 952.816H63.018V236.484h220.408V71.183h440.816v165.301h220.409v716.332H724.242zM283.427 291.612H118.12v606.103h165.307V291.612z m165.307 606.104h110.204V787.488H448.734v110.228z m220.408-661.231V126.284H338.53v771.432h55.103V732.388h220.409v165.328h55.103V236.485z m220.408 55.127H724.243v606.103H889.55V291.612z m-55.103 165.301h-55.102v-55.101h55.102v55.101z m0 165.274h-55.102v-55.128h55.102v55.128z m0 165.301h-55.102v-55.101h55.102v55.101zM393.631 567.059H614.04v55.128H393.631v-55.128z m0-165.245H614.04v55.101H393.631v-55.101z m0-165.329H614.04v55.128H393.631v-55.128zM228.325 456.913h-55.102v-55.101h55.102v55.101z m0 165.274h-55.102v-55.128h55.102v55.128z m0 165.301h-55.102v-55.101h55.102v55.101z" p-id="2183"></path></svg>