<?xml version="1.0" encoding="utf-8"?>
<!-- Generator: Adobe Illustrator 21.0.0, SVG Export Plug-In . SVG Version: 6.00 Build 0)  -->
<svg version="1.1" id="图层_1" xmlns="http://www.w3.org/2000/svg" xmlns:xlink="http://www.w3.org/1999/xlink" x="0px" y="0px"
	 viewBox="0 0 1024 1024" style="enable-background:new 0 0 1024 1024;" xml:space="preserve">
<style type="text/css">
	.st0{fill:#6CA3F5;}
	.st1{fill:#FFFFFF;}
</style>
<circle class="st0" cx="511.8" cy="514.3" r="400"/>
<g>
	<path class="st1" d="M511.8,301L511.8,301c-14.7,0-26.7,11.9-26.7,26.7V701c0,14.7,11.9,26.7,26.7,26.7h0
		c14.7,0,26.7-11.9,26.7-26.7V327.7C538.4,312.9,526.5,301,511.8,301z"/>
	<path class="st1" d="M725.1,514.3L725.1,514.3c0-14.7-11.9-26.7-26.7-26.7H325.1c-14.7,0-26.7,11.9-26.7,26.7v0
		c0,14.7,11.9,26.7,26.7,26.7h373.3C713.1,541,725.1,529.1,725.1,514.3z"/>
</g>
</svg>
