<?xml version="1.0" encoding="utf-8"?>
<!-- Generator: Adobe Illustrator 21.0.0, SVG Export Plug-In . SVG Version: 6.00 Build 0)  -->
<svg version="1.1" id="图层_1" xmlns="http://www.w3.org/2000/svg" xmlns:xlink="http://www.w3.org/1999/xlink" x="0px" y="0px"
	 viewBox="0 0 1024 1024" style="enable-background:new 0 0 1024 1024;" xml:space="preserve">
<style type="text/css">
	.st0{fill:#F57F6D;}
	.st1{fill:#FFFFFF;}
</style>
<circle class="st0" cx="511.9" cy="514.3" r="400"/>
<g>
	<path class="st1" d="M716.2,637.9l-84.5,86.3c-10.6,10.6-27.9,10.7-38.5,0l-39.6-42.8c-5.8-5.8-5.8-15.3,0-21.1l1.3-1.3
		c5.8-5.8,15.3-5.8,21.1,0l33,36.1c1.9,1.9,5.1,1.9,7,0l77.9-79.7c5.8-5.8,15.3-5.8,21.1,0l1.3,1.3C722,622.6,722,632,716.2,637.9z"
		/>
	<path class="st1" d="M522.2,734.3H369.9c-36.7,0-66.6-29.9-66.6-66.6V360.9c0-36.7,29.9-66.6,66.6-66.6h279.2
		c36.7,0,66.6,29.9,66.6,66.6v207.3c0,8.8-7.1,15.9-15.9,15.9c-8.8,0-15.9-7.1-15.9-15.9V360.9c0-19.2-15.7-34.9-34.9-34.9H369.9
		c-19.2,0-34.9,15.7-34.9,34.9v306.7c0,19.2,15.7,34.9,34.9,34.9h152.3c8.8,0,15.9,7.1,15.9,15.9C538.1,727.2,531,734.3,522.2,734.3
		z"/>
	<path class="st1" d="M622.4,420H396.7c-8.5,0-15.3-6.9-15.3-15.3s6.9-15.3,15.3-15.3h225.7c8.5,0,15.3,6.9,15.3,15.3
		S630.9,420,622.4,420z"/>
	<path class="st1" d="M622.4,503.7H396.7c-8.5,0-15.3-6.9-15.3-15.3s6.9-15.3,15.3-15.3h225.7c8.5,0,15.3,6.9,15.3,15.3
		S630.9,503.7,622.4,503.7z"/>
	<path class="st1" d="M558.9,587.4H396.7c-8.5,0-15.3-6.9-15.3-15.3c0-8.5,6.9-15.3,15.3-15.3h162.3c8.5,0,15.3,6.9,15.3,15.3
		C574.3,580.5,567.4,587.4,558.9,587.4z"/>
</g>
</svg>
