<?xml version="1.0" encoding="utf-8"?>
<!-- Generator: Adobe Illustrator 21.0.0, SVG Export Plug-In . SVG Version: 6.00 Build 0)  -->
<svg version="1.1" id="图层_1" xmlns="http://www.w3.org/2000/svg" xmlns:xlink="http://www.w3.org/1999/xlink" x="0px" y="0px"
	 viewBox="0 0 1024 1024" style="enable-background:new 0 0 1024 1024;" xml:space="preserve">
<style type="text/css">
	.st0{fill:#00B678;}
</style>
<path class="st0" d="M879.1,403.3L586.8,144c-41.8-41.7-109.9-41.7-150.2-1.4L147.6,395l-2.6,2.4c-43.1,43.6-44.7,107.7-3.7,149.2
	l61.7,49.7v208.2c0,57.6,53.2,108.1,113.8,108.1l387.3,0c57.7,0,104.7-48.5,104.7-108.1V605.8l64.8-46.6l6.2-5.3
	C922,511.2,922.4,447,879.1,403.3z M644.4,596.8c-33.5,52.4-117.1,117-120.7,119.8c-7.9,6.2-18.9,6.2-26.8,0
	c-3.6-2.7-87.2-67.6-120.6-119.8c-11.6-18.2-26.1-40.8-26.1-73.4c0-54.9,41.1-99.5,91.6-99.5c26.8,0.2,52,12.6,68.5,33.6
	c16.5-21,41.8-33.4,68.6-33.6h0c50.5,0,91.6,44.6,91.6,99.5C670.5,556,656,578.6,644.4,596.8z"/>
</svg>
