<?xml version="1.0" encoding="utf-8"?>
<!-- Generator: Adobe Illustrator 21.0.0, SVG Export Plug-In . SVG Version: 6.00 Build 0)  -->
<svg version="1.1" id="图层_1" xmlns="http://www.w3.org/2000/svg" xmlns:xlink="http://www.w3.org/1999/xlink" x="0px" y="0px"
	 viewBox="0 0 1024 1024" style="enable-background:new 0 0 1024 1024;" xml:space="preserve">
<style type="text/css">
	.st0{fill:#6CA3F5;}
</style>
<path class="st0" d="M563.3,940.7H241c-71.3,0-129.2-58-129.2-129.2V216.6c0-71.3,58-129.2,129.2-129.2h541.5
	c71.3,0,129.2,58,129.2,129.2v375.1c0,17-13.8,30.8-30.8,30.8s-30.8-13.8-30.8-30.8V216.6c0-37.3-30.4-67.7-67.7-67.7H241
	c-37.3,0-67.7,30.4-67.7,67.7v594.9c0,37.3,30.4,67.7,67.7,67.7h322.4c17,0,30.8,13.8,30.8,30.8
	C594.1,926.9,580.3,940.7,563.3,940.7z"/>
<path class="st0" d="M730.6,358.2H292.9c-16.4,0-29.7-13.3-29.7-29.7s13.3-29.7,29.7-29.7h437.7c16.4,0,29.7,13.3,29.7,29.7
	S747,358.2,730.6,358.2z"/>
<path class="st0" d="M730.6,547.5H292.9c-16.4,0-29.7-13.3-29.7-29.7c0-16.4,13.3-29.7,29.7-29.7h437.7c16.4,0,29.7,13.3,29.7,29.7
	C760.3,534.2,747,547.5,730.6,547.5z"/>
<path class="st0" d="M607.5,736.8H292.9c-16.4,0-29.7-13.3-29.7-29.7s13.3-29.7,29.7-29.7h314.7c16.4,0,29.7,13.3,29.7,29.7
	S624,736.8,607.5,736.8z"/>
<g>
	<path class="st0" d="M911.7,940.7H681.5v-25.8c0.3-11,6.4-16.1,20.7-16.1H891c14.4,0,20.7,5.4,20.7,16.7V940.7z"/>
	<path class="st0" d="M772.2,876.1c-7.4,0-13.4-0.3-19.1-0.7c-6.4-0.7-23.1-2.3-28.1-19.1c-3-10.4-0.7-23.8,5.7-32.5
		c0.7-1,2-2.3,4.3-5.4c0.7-1,1.3-1.7,2-2.3c-30.1-38.1-30.1-89.3,0.3-119.1c15.7-15.4,36.8-24.1,58.9-24.1
		c19.1,0,37.8,6.4,52.9,18.4c33.1,26.4,41.2,72.9,18.4,108.4c-3.7,5.7-8,11-12,16.1l5.7,5.7c10,10.7,12.7,24.1,7,36.8
		c-3.7,8-11.7,17.4-29.8,17.4h-1c-9.7-0.3-19.4,0-28.8,0c-8,0-15.7,0-23.8,0.3H772.2z"/>
</g>
</svg>
