<?xml version="1.0" encoding="utf-8"?>
<!-- Generator: Adobe Illustrator 21.0.0, SVG Export Plug-In . SVG Version: 6.00 Build 0)  -->
<svg version="1.1" id="图层_1" xmlns="http://www.w3.org/2000/svg" xmlns:xlink="http://www.w3.org/1999/xlink" x="0px" y="0px"
	 viewBox="0 0 1024 1024" style="enable-background:new 0 0 1024 1024;" xml:space="preserve">
<style type="text/css">
	.st0{fill:#F57F6D;}
	.st1{fill-rule:evenodd;clip-rule:evenodd;fill:#FFFFFF;}
</style>
<path class="st0" d="M830.3,921.9h-620c-49.5,0-90-40.5-90-90v-620c0-49.5,40.5-90,90-90h620c49.5,0,90,40.5,90,90v620
	C920.3,881.4,879.8,921.9,830.3,921.9z"/>
<path class="st1" d="M766.2,325.1c-63.4-63.4-166.2-63.4-229.6,0l-16.2,16.2l-16.2-16.2c-63.4-63.4-166.2-63.4-229.6,0
	c-63.4,63.4-63.4,166.2,0,229.6l16.2,16.2l229.6,195.5L750,570.9l16.2-16.2C829.6,491.3,829.6,388.5,766.2,325.1z M696.4,522.1
	c-11,0-20.2-7.6-22.8-17.8h-96.4l-18.6,96.4c-0.9,4.9-5,8.5-10.2,8.3c-5-0.1-9.2-3.8-9.9-8.7l-26.1-170.2l-28.5,177.5
	c-0.8,5-5.1,8.6-10.1,8.6c-0.1,0-0.1,0-0.2,0c-5.1-0.1-9.4-3.9-10-9l-18.2-150.1l-27.8,42.5c-1.9,2.9-5.1,4.6-8.6,4.6H299.3
	c-5.7,0-10.2-4.6-10.2-10.2c0-5.7,4.6-10.2,10.2-10.2h104.1l40.2-61.3c2.4-3.6,6.7-5.3,10.9-4.4c4.2,1,7.3,4.5,7.8,8.7l12.8,105.8
	l27.3-170.1c0.8-5,5.1-8.6,10.1-8.6c0,0,0,0,0,0c5,0,9.3,3.7,10.1,8.7l27,176.1l9-46.6c0.9-4.8,5.1-8.3,10.1-8.3h109.4
	c4.3-5.4,10.9-8.9,18.3-8.9c13,0,23.6,10.6,23.6,23.6C720,511.5,709.4,522.1,696.4,522.1z"/>
</svg>
