<?xml version="1.0" encoding="utf-8"?>
<!-- Generator: Adobe Illustrator 21.0.0, SVG Export Plug-In . SVG Version: 6.00 Build 0)  -->
<svg version="1.1" id="图层_1" xmlns="http://www.w3.org/2000/svg" xmlns:xlink="http://www.w3.org/1999/xlink" x="0px" y="0px"
	 viewBox="0 0 1024 1024" style="enable-background:new 0 0 1024 1024;" xml:space="preserve">
<style type="text/css">
	.st0{fill:#42C2EF;}
	.st1{fill:#FFFFFF;}
</style>
<path class="st0" d="M830.3,921.9h-620c-49.5,0-90-40.5-90-90v-620c0-49.5,40.5-90,90-90h620c49.5,0,90,40.5,90,90v620
	C920.3,881.4,879.8,921.9,830.3,921.9z"/>
<g>
	<g>
		<path class="st1" d="M691.7,613.6c-9.4,0-18.7,1.8-27.3,5.3c-0.8-0.9-0.8-1.7-1.7-1.7L490.9,442.1c-11.2-11.8-28-16.2-43.5-11.5
			c-0.7,0.1-1.3,0.4-1.7,0.9c-5.8,1.7-11.2,4.7-15.7,8.8c-104.5,64.1-176.9,221.5-176.9,351.7c0,0,0,0,0,0l0,0
			c-2.1,23.6,16.6,44,40.3,44h248.4c22.7,0,41.2-18.4,41.2-41.2V664.5l15.7,16.7c2.8,2.8,5.9,5.2,9.4,7.1
			c1.2,16.4,14.9,29.1,31.4,29.1c15.6,0.2,28.9-11,31.4-26.4h0.8v-7.1c0-10.4,8.4-18.8,18.8-18.8c10.4,0,18.8,8.4,18.8,18.8v125.2
			c0,13.9,11.3,25.1,25.1,25.1h0c13.9,0,25.1-11.3,25.1-25.1V685.7c0.7-18.6-6.1-36.7-18.8-50.3S710.3,614,691.7,613.6L691.7,613.6z
			 M786,292.7c-2.5-10.5-34.1-23.7-44.3-21l-6,1.7l-29.8-35.2c-9.6-10.3-20.2-19.7-31.4-28.1c-17.1-10.5-151.8,19.3-168.7,47.1
			c-5.8,10.1-9.8,21.1-11.9,32.5l-10.2,53.7l-6,1.7c-10.2,2.7-31.4,31.4-28.1,41.3c1,5,4.1,9.3,8.5,11.8c4.4,2.5,9.7,3,14.5,1.4
			l40.1-10.5c5.6,60.7,59.4,105.4,120.1,99.8c60.7-5.6,105.4-59.4,99.8-120.1c0-12.9-2.3-25.7-6.8-37.9l47.1-13.2
			c10.1-3.6,15.7-14.4,12.7-24.7L786,292.7z M701.4,233.6l3.5,4.4C705.7,239.7,705.7,239,701.4,233.6L701.4,233.6z M701.4,233.6"/>
	</g>
</g>
</svg>
