<?xml version="1.0" encoding="utf-8"?>
<!-- Generator: Adobe Illustrator 21.0.0, SVG Export Plug-In . SVG Version: 6.00 Build 0)  -->
<svg version="1.1" id="图层_1" xmlns="http://www.w3.org/2000/svg" xmlns:xlink="http://www.w3.org/1999/xlink" x="0px" y="0px"
	 viewBox="0 0 1024 1024" style="enable-background:new 0 0 1024 1024;" xml:space="preserve">
<style type="text/css">
	.st0{fill:#FDB24A;}
	.st1{fill-rule:evenodd;clip-rule:evenodd;fill:#FFFFFF;}
</style>
<path class="st0" d="M830.3,921.9h-620c-49.5,0-90-40.5-90-90v-620c0-49.5,40.5-90,90-90h620c49.5,0,90,40.5,90,90v620
	C920.3,881.4,879.8,921.9,830.3,921.9z"/>
<path class="st1" d="M593.3,213.3c0,0-18,27.6-43.4,69.2c54.8,109.2,135.5,284.7,132.3,364.2c-3.3,81.3-48.8,151-114.4,188.8
	c0.2,0,0.4,0,0.6,0c106.3,4.3,195.9-78.7,200.2-185.4C772.9,543.5,593.3,213.3,593.3,213.3z"/>
<path class="st1" d="M472,208.4c0,0-205.4,314.8-209.7,421.4c-4.3,106.6,78.5,196.5,184.8,200.8c106.3,4.3,195.9-78.7,200.2-185.4
	C651.6,538.6,472,208.4,472,208.4z M521.3,644.4l-34.5-1.4l-1.4,34.5c-0.7,17.7-15.8,31.6-33.5,30.9s-31.6-15.8-30.9-33.5l1.4-34.5
	l-34.5-1.4c-17.7-0.7-31.6-15.8-30.9-33.5c0.7-17.7,15.8-31.6,33.5-30.9l34.5,1.4l1.4-34.5c0.7-17.7,15.8-31.6,33.5-30.9
	s31.6,15.8,30.9,33.5l-1.4,34.5l34.5,1.4c17.7,0.7,31.6,15.8,30.9,33.5C554.1,631.2,539,645.1,521.3,644.4z"/>
</svg>
