<?xml version="1.0" encoding="utf-8"?>
<!-- Generator: Adobe Illustrator 21.0.0, SVG Export Plug-In . SVG Version: 6.00 Build 0)  -->
<svg version="1.1" id="图层_1" xmlns="http://www.w3.org/2000/svg" xmlns:xlink="http://www.w3.org/1999/xlink" x="0px" y="0px"
	 viewBox="0 0 1024 1024" style="enable-background:new 0 0 1024 1024;" xml:space="preserve">
<style type="text/css">
	.st0{fill:#6CA3F5;}
	.st1{fill:#FFFFFF;}
</style>
<path class="st0" d="M830.3,921.9h-620c-49.5,0-90-40.5-90-90v-620c0-49.5,40.5-90,90-90h620c49.5,0,90,40.5,90,90v620
	C920.3,881.4,879.8,921.9,830.3,921.9z"/>
<path class="st1" d="M627.2,323.3c0,0,0.3-49.6,0.1-82.4h-302c-26.6,0-45,22-45,57.6v456.9c0,25.3,21.3,47.6,42.2,47.6h386.2
	c25.3,0,51.6-24,51.6-47.1V369.7h-86C646.9,369.7,627.2,349.9,627.2,323.3L627.2,323.3z M345.3,365.8c0-7.2,6-13,13.4-13h53.7v-50.5
	c0-7.2,6-13,13.4-13h23.6c7.4,0,13.4,5.8,13.4,13v50.5h51.9c7.4,0,13.4,5.8,13.4,13v22.4c0,7.2-6,13-13.4,13h-51.9v51.2
	c0,7.2-6,13-13.4,13h-23.6c-7.4,0-13.4-5.8-13.4-13v-51.2h-53.7c-7.4,0-13.4-5.8-13.4-13V365.8z M693.7,693.2
	c0,7.5-7.4,13.6-16.6,13.6H357.8c-9.1,0-16.6-6.1-16.6-13.6v-20.8c0-7.5,7.4-13.6,16.6-13.6h319.3c9.1,0,16.6,6.1,16.6,13.6V693.2z
	 M677.7,545.8c9.2,0,16.6,6.1,16.6,13.6v20.8c0,7.5-7.4,13.6-16.6,13.6H357.8c-9.1,0-16.6-6.1-16.6-13.6v-20.8
	c0-7.5,7.4-13.6,16.6-13.6H677.7z M677.7,545.8"/>
</svg>
