<?xml version="1.0" encoding="utf-8"?>
<!-- Generator: Adobe Illustrator 21.0.0, SVG Export Plug-In . SVG Version: 6.00 Build 0)  -->
<svg version="1.1" id="图层_1" xmlns="http://www.w3.org/2000/svg" xmlns:xlink="http://www.w3.org/1999/xlink" x="0px" y="0px"
	 viewBox="0 0 1024 1024" style="enable-background:new 0 0 1024 1024;" xml:space="preserve">
<style type="text/css">
	.st0{fill:#00C369;}
	.st1{fill:#FFFFFF;}
</style>
<path class="st0" d="M830.3,921.9h-620c-49.5,0-90-40.5-90-90v-620c0-49.5,40.5-90,90-90h620c49.5,0,90,40.5,90,90v620
	C920.3,881.4,879.8,921.9,830.3,921.9z"/>
<path class="st1" d="M675.6,427.7c0,0,93.3-130.3,101.3-141.8c7.9-11.4,13.2-29.6-11.2-44.9c-24.4-15.9-31.1-18.5-50.8,2.6
	c-20,21.4-206,241-206,241h121.2l17-20c0,0,50.8,2.6,50.8,22.6c0,20-131.2,25.2-183.2,25.2c-52.2,0-174.9-8.5-174.9-28.5
	c0-20,118.3-28.5,146.8-28.5l33.8-39.6c0,0-287.6,5-293.2,70.7c-5.6,65.7,20.5,187.6,157.6,257.7c0,0,6.8,10,8.2,20
	c1.8,10,5,51.4,123.9,51.1c134.7-0.3,128.9-47,132.4-59.6c3.8-12.6,2.1-11.7,13.8-17c11.7-5.6,133.8-43.7,149.4-246.3
	C813.8,492.8,824.4,451.2,675.6,427.7L675.6,427.7z M675.6,427.7"/>
</svg>
