<?xml version="1.0" standalone="no"?><!DOCTYPE svg PUBLIC "-//W3C//DTD SVG 1.1//EN" "http://www.w3.org/Graphics/SVG/1.1/DTD/svg11.dtd"><svg t="1511345370147" class="icon" style="" viewBox="0 0 1024 1024" version="1.1" xmlns="http://www.w3.org/2000/svg" p-id="4622" xmlns:xlink="http://www.w3.org/1999/xlink" width="200" height="200"><defs><style type="text/css"></style></defs><path d="M521.927093 979.862757h-0.072654c-122.31272 0-237.325174-47.651276-323.848783-134.175909-86.519516-86.518492-134.157489-201.543226-134.13907-323.884598 0-122.333186 47.651276-237.357919 134.175909-323.881528 86.523609-86.524632 201.548342-134.175909 323.883575-134.175909 122.384351 0 237.395782 47.650253 323.920414 134.174885 86.519516 86.519516 134.157489 201.544249 134.13907 323.885622 0 122.381281-47.637973 237.418294-134.13907 323.918367-86.482677 86.482677-201.51969 134.12065-323.919391 134.13907z m-0.002046-843.013972c-102.803387 0-199.468984 40.048111-272.187169 112.767319-72.719208 72.718185-112.76732 169.383782-112.76732 272.187169 0 102.826923 40.035832 199.491497 112.731504 272.187169 72.718185 72.718185 169.397085 112.76732 272.222985 112.76732 102.850459 0 199.528336-40.035832 272.222985-112.731504 72.695672-72.694649 112.731504-169.372525 112.731504-272.222985 0-102.827947-40.035832-199.49252-112.731504-272.187169-72.718185-72.718185-169.396061-112.76732-272.222985-112.767319z" p-id="4623"></path><path d="M721.791074 558.37419h-399.732054c-9.766434 0-18.946514-3.801583-25.848715-10.703783-6.9022-6.9022-10.703783-16.08228-10.703782-25.847691 0-20.155039 16.397459-36.552497 36.552497-36.552497h399.732054c20.155039 0 36.552497 16.397459 36.552497 36.552497s-16.397459 36.551474-36.552497 36.551474z" p-id="4624"></path><path d="M485.372549 721.68772v-399.732054c0-9.766434 3.801583-18.946514 10.703783-25.848715 6.9022-6.9022 16.08228-10.703783 25.847692-10.703782 20.155039 0 36.552497 16.397459 36.552497 36.552497v399.732054c0 20.155039-16.397459 36.552497-36.552497 36.552497s-36.551474-16.397459-36.551475-36.552497z" p-id="4625"></path></svg>