<?xml version="1.0" standalone="no"?><!DOCTYPE svg PUBLIC "-//W3C//DTD SVG 1.1//EN" "http://www.w3.org/Graphics/SVG/1.1/DTD/svg11.dtd"><svg t="1510556856552" class="icon" style="" viewBox="0 0 1024 1024" version="1.1" xmlns="http://www.w3.org/2000/svg" p-id="8145" xmlns:xlink="http://www.w3.org/1999/xlink" width="200" height="200"><defs><style type="text/css"></style></defs><path d="M500.778424 896.112308l-307.677475 0c-24.168446 0-43.831274-18.558681-43.831274-41.370223L149.269675 422.920172 830.110081 422.920172l0 89.255837c0 16.138562 13.081946 29.220508 29.220508 29.220508 16.138562 0 29.220508-13.081946 29.220508-29.220508L888.551098 236.369406c0-55.036477-45.879933-99.81124-102.272291-99.81124l-93.505627 0L692.77318 100.032274c0-15.331173-12.428054-27.759227-27.759227-27.759227-15.331173 0-27.759227 12.428054-27.759227 27.759227l0 36.525891L330.437851 136.558166 330.437851 100.032274c0-15.331173-12.428054-27.759227-27.759227-27.759227-15.331173 0-27.759227 12.428054-27.759227 27.759227l0 36.525891-81.817424 0c-56.393381 0-102.272291 44.774763-102.272291 99.81124l0 618.373703c0 55.035454 45.87891 99.81124 102.272291 99.81124l307.677475 0c16.138562 0 29.220508-13.081946 29.220508-29.220508C529.998933 909.194254 516.916986 896.112308 500.778424 896.112308zM193.10095 194.999183l81.817424 0 0 97.889471c0 15.331173 12.428054 27.759227 27.759227 27.759227 15.331173 0 27.759227-12.428054 27.759227-27.759227l0-97.889471 306.816874 0 0 97.889471c0 15.331173 12.428054 27.759227 27.759227 27.759227 15.331173 0 27.759227-12.428054 27.759227-27.759227l0-97.889471 93.505627 0c24.168446 0 43.831274 18.558681 43.831274 41.370223l0 128.10975L149.269675 364.479155 149.269675 236.369406C149.269675 213.557864 168.932504 194.999183 193.10095 194.999183z" p-id="8146"></path><path d="M434.171424 593.861426c16.138562 0 29.220508-13.08297 29.220508-29.220508 0-16.138562-13.08297-29.220508-29.220508-29.220508L238.392482 535.420409c-16.138562 0-29.220508 13.08297-29.220508 29.220508 0 16.138562 13.08297 29.220508 29.220508 29.220508L434.171424 593.861426z" p-id="8147"></path><path d="M244.236584 754.574734 440.015525 754.574734c16.138562 0 29.220508-13.08297 29.220508-29.220508 0-16.138562-13.08297-29.220508-29.220508-29.220508L244.236584 696.133717c-16.138562 0-29.220508 13.08297-29.220508 29.220508C215.016075 741.491765 228.099045 754.574734 244.236584 754.574734z" p-id="8148"></path><path d="M714.444758 528.97665c-120.636544 0-218.780819 98.144274-218.780819 218.779795 0 120.636544 98.144274 218.780819 218.780819 218.780819 120.635521 0 218.779795-98.144274 218.779795-218.780819C933.224554 627.120924 835.079256 528.97665 714.444758 528.97665zM714.444758 908.096247c-88.410586 0-160.339802-71.929216-160.339802-160.339802s71.928193-160.338778 160.339802-160.338778 160.338778 71.927169 160.338778 160.338778S802.855344 908.096247 714.444758 908.096247z" p-id="8149"></path><path d="M828.861648 745.778394 723.455993 745.778394 723.455993 641.102357c0-7.631818-6.186909-13.81975-13.81975-13.81975-7.631818 0-13.81975 6.186909-13.81975 13.81975l0 118.646214c0 7.631818 6.186909 13.81975 13.81975 13.81975 0.659009 0 1.302669-0.062422 1.938142-0.151449L828.861648 773.416871c7.631818 0 13.81975-6.186909 13.81975-13.81975C842.681398 751.965304 836.494489 745.778394 828.861648 745.778394z" p-id="8150"></path></svg>