<?xml version="1.0" standalone="no"?><!DOCTYPE svg PUBLIC "-//W3C//DTD SVG 1.1//EN" "http://www.w3.org/Graphics/SVG/1.1/DTD/svg11.dtd"><svg t="1510556909508" class="icon" style="" viewBox="0 0 1024 1024" version="1.1" xmlns="http://www.w3.org/2000/svg" p-id="8510" xmlns:xlink="http://www.w3.org/1999/xlink" width="200" height="200"><defs><style type="text/css"></style></defs><path d="M665.056 542.048m-92.8 0a5.8 5.8 0 1 0 185.6 0 5.8 5.8 0 1 0-185.6 0Z" p-id="8511"></path><path d="M795.056 542.048m-92.8 0a5.8 5.8 0 1 0 185.6 0 5.8 5.8 0 1 0-185.6 0Z" p-id="8512"></path><path d="M240.048 471.568c-123.712 0-224 100.288-224 224s100.288 224 224 224 224-100.288 224-224S363.76 471.568 240.048 471.568zM236.848 772.4l0.144 0.144-10.432 10.272-25.76 26.032-0.352-0.352-1.456 1.44-107.792-109.648 38.016-37.376 70.304 71.504 151.584-153.152 37.872 37.472L236.848 772.4z" p-id="8513"></path><path d="M959.952 104.416l-772.8 0c-26.512 0-48 21.488-48 48l0 240.48 76 0L215.152 218.096c0-20.816 17.744-37.68 39.616-37.68l637.584 0c21.872 0 39.616 16.864 39.616 37.68l0 480.288c0 20.832-17.728 37.68-39.616 37.68L512 736.064l0 76 447.952 0c26.512 0 48-21.488 48-48L1007.952 152.416C1007.952 125.904 986.464 104.416 959.952 104.416z" p-id="8514"></path><path d="M184.544 363.632 953.328 363.632 953.328 262.832 184.544 262.832Z" p-id="8515"></path></svg>