<?xml version="1.0" standalone="no"?><!DOCTYPE svg PUBLIC "-//W3C//DTD SVG 1.1//EN" "http://www.w3.org/Graphics/SVG/1.1/DTD/svg11.dtd"><svg t="1510916655668" class="icon" style="" viewBox="0 0 1024 1024" version="1.1" xmlns="http://www.w3.org/2000/svg" p-id="1682" xmlns:xlink="http://www.w3.org/1999/xlink" width="200" height="200"><defs><style type="text/css"></style></defs><path d="M848 153.6h-92.8V99.2c0-25.6-19.2-44.8-44.8-44.8-25.6 0-44.8 19.2-44.8 44.8v54.4H352V99.2c0-25.6-19.2-44.8-44.8-44.8-25.6 0-44.8 19.2-44.8 44.8v54.4H172.8c-70.4 0-128 57.6-128 128V864c0 70.4 57.6 128 128 128h678.4c70.4 0 128-57.6 128-128V281.6c0-70.4-57.6-128-131.2-128zM172.8 208h92.8v25.6c0 25.6 19.2 44.8 44.8 44.8 25.6 0 44.8-19.2 44.8-44.8v-25.6H672v25.6c0 25.6 19.2 44.8 44.8 44.8 25.6 0 44.8-19.2 44.8-44.8v-25.6h92.8c41.6 0 76.8 35.2 76.8 76.8v89.6H96V281.6c0-41.6 32-73.6 76.8-73.6z m675.2 732.8H172.8C128 940.8 96 905.6 96 864V425.6h828.8V864c0 41.6-35.2 76.8-76.8 76.8zM374.4 505.6H480v76.8h-108.8v-76.8z m176 0h108.8v76.8h-108.8v-76.8z m176 0h108.8v76.8h-108.8v-76.8zM185.6 652.8h108.8v76.8H185.6v-76.8z m188.8 0H480v76.8h-108.8v-76.8z m176 0h108.8v76.8h-108.8v-76.8z m176 0h108.8v76.8h-108.8v-76.8zM185.6 800h108.8v76.8H185.6V800z m188.8 0H480v76.8h-108.8V800z m176 0h108.8v76.8h-108.8V800z m176 0h108.8v76.8h-108.8V800z" fill="" p-id="1683"></path></svg>