<?xml version="1.0" standalone="no"?><!DOCTYPE svg PUBLIC "-//W3C//DTD SVG 1.1//EN" "http://www.w3.org/Graphics/SVG/1.1/DTD/svg11.dtd"><svg t="1510554087835" class="icon" style="" viewBox="0 0 1106 1024" version="1.1" xmlns="http://www.w3.org/2000/svg" p-id="3513" xmlns:xlink="http://www.w3.org/1999/xlink" width="216.015625" height="200"><defs><style type="text/css"></style></defs><path d="M982.461226 695.497532 982.461226 418.420066l-83.077547 0 0 1.163086L593.547536 419.583152l0-91.080684 123.28708 0L716.834616 0 388.332148 0l0 328.502468 122.137841 0 0 91.080684L205.796931 419.583152l0-1.163086-83.077547 0L122.719383 695.497532 0 695.497532l0 328.502468 328.502468 0L328.502468 695.497532l-122.705537 0L205.796931 502.660699l304.673058 0L510.469989 695.497532l-122.137841 0 0 328.502468 328.516314 0L716.848462 695.497532l-123.28708 0L593.561382 502.660699l305.836144 0L899.397526 695.497532l-122.719383 0 0 328.502468 328.516314 0L1105.194456 695.497532 982.461226 695.497532zM471.409695 83.077547l162.36122 0 0 162.347373L471.409695 245.424921 471.409695 83.077547zM245.424921 940.922453 83.077547 940.922453 83.077547 778.575079l162.347373 0L245.424921 940.922453zM633.757068 940.922453 471.409695 940.922453 471.409695 778.575079l162.36122 0L633.770915 940.922453zM1022.089216 940.922453 859.741843 940.922453 859.741843 778.575079l162.36122 0L1022.103063 940.922453z" p-id="3514"></path></svg>