<?xml version="1.0" encoding="utf-8"?>
<!-- Generator: Adobe Illustrator 21.0.0, SVG Export Plug-In . SVG Version: 6.00 Build 0)  -->
<svg version="1.1" id="图层_1" xmlns="http://www.w3.org/2000/svg" xmlns:xlink="http://www.w3.org/1999/xlink" x="0px" y="0px"
	 viewBox="0 0 1024 1024" style="enable-background:new 0 0 1024 1024;" xml:space="preserve">
<path d="M509.5,112.7c-220.9,0-400,179.1-400,400s179.1,400,400,400s400-179.1,400-400S730.5,112.7,509.5,112.7z M509.5,846.1
	c-184.1,0-333.3-149.2-333.3-333.3s149.2-333.3,333.3-333.3s333.3,149.2,333.3,333.3S693.6,846.1,509.5,846.1z"/>
<path d="M628.9,580.3c-24.5-13.8-23.3-3.1-73.2,27.4c-23.3,14.2-55-9.3-55-9.3s-25.1-15.8-43-33.7c-17.8-17.9-33.8-43-33.8-43
	s-23.5-31.7-9.1-55c30.6-49.9,41.1-48.8,27.4-73.4c-47.9-85.5-79.7-82-87.6-79.7c-30.8,8.5-55.7,64.5-40.5,125.6
	c15.3,61.5,47.7,122.8,96.7,172.2c49.5,49,110.9,81.4,172.3,96.7c61.1,15.3,117.1-9.6,125.6-40.4
	C710.9,659.9,714.4,628.1,628.9,580.3L628.9,580.3z"/>
</svg>
