<?xml version="1.0" encoding="utf-8"?>
<!-- Generator: Adobe Illustrator 21.0.0, SVG Export Plug-In . SVG Version: 6.00 Build 0)  -->
<svg version="1.1" id="图层_1" xmlns="http://www.w3.org/2000/svg" xmlns:xlink="http://www.w3.org/1999/xlink" x="0px" y="0px"
	 viewBox="0 0 1024 1024" style="enable-background:new 0 0 1024 1024;" xml:space="preserve">
<path d="M621.2,575.3c-22.9-12.9-21.8-3-68.7,25.7c-21.8,13.3-51.5-8.7-51.5-8.7s-23.5-14.8-40.3-31.6
	c-16.7-16.8-31.7-40.3-31.7-40.3s-22-29.7-8.5-51.5c28.7-46.8,38.6-45.7,25.7-68.8c-44.9-80.1-74.7-76.8-82.1-74.7
	c-28.8,8-52.2,60.5-38,117.8c14.3,57.6,44.7,115.1,90.7,161.5c46.4,46,103.9,76.3,161.5,90.7c57.3,14.3,109.7-9,117.8-37.9
	C698.1,650,701.4,620.2,621.2,575.3L621.2,575.3z"/>
<path d="M782.4,796.3H236.2c-70,0-126.9-56.9-126.9-126.9V354.6c0-70,56.9-126.9,126.9-126.9h546.2c70,0,126.9,56.9,126.9,126.9
	v314.8C909.3,739.4,852.4,796.3,782.4,796.3z M236.2,288.2c-36.7,0-66.5,29.8-66.5,66.5v314.8c0,36.6,29.8,66.5,66.5,66.5h546.2
	c36.7,0,66.5-29.8,66.5-66.5V354.6c0-36.7-29.8-66.5-66.5-66.5H236.2z"/>
</svg>
