<?xml version="1.0" encoding="utf-8"?>
<!-- Generator: Adobe Illustrator 21.0.0, SVG Export Plug-In . SVG Version: 6.00 Build 0)  -->
<svg version="1.1" id="图层_1" xmlns="http://www.w3.org/2000/svg" xmlns:xlink="http://www.w3.org/1999/xlink" x="0px" y="0px"
	 viewBox="0 0 1024 1024" style="enable-background:new 0 0 1024 1024;" xml:space="preserve">
<path d="M504.2,685.3c-16.3,0-32.8-7.8-43.6-20.4l-3.1-3.8c-57.8-82.6-95.6-137.2-112.3-162.4l-0.7-1.1
	c-20.3-31.3-30.6-65.9-30.6-102.9c0-105,85.4-190.4,190.4-190.4s190.4,85.4,190.4,190.4c0,34.5-9.6,68.7-27.9,99.2l-3.6,4.9
	c-9.6,13.4-72.5,104-112.8,162.3C541.8,675.4,523.7,685.3,504.2,685.3z M394.5,465l0.4,0.7c20.1,30.2,69.8,101.5,108.9,157.5
	c19.3-28,106.1-153.2,112.9-162.3c11.7-20.3,18.1-43.7,18.1-66.2c0-72-58.6-130.6-130.6-130.6s-130.6,58.6-130.6,130.6
	C373.6,419.9,380.7,443.5,394.5,465z"/>
<path d="M503.5,334.9c33,0,59.8,26.8,59.8,59.8c0,33.9-26.8,59.8-59.8,59.8c-33,0-59.8-26.8-59.8-59.8
	C443.8,361.7,470.5,334.9,503.5,334.9L503.5,334.9z"/>
<path d="M818.3,820.7h-615c-35.2,0-66.2-18.8-83-50.2c-15.8-29.5-13.9-65,5-93.2L224,485.6c5.1-9.9,15.4-16.2,26.6-16.2h117.1
	c16.5,0,29.9,13.4,29.9,29.9c0,16.5-13.4,29.9-29.9,29.9h-98.8l-91.2,177.3c-0.6,1.2-1.4,2.4-2.1,3.5c-7,10-7.9,22.1-2.4,32.4
	c6.4,12,17.2,18.6,30.2,18.6h615c12.7,0,23.6-6.7,29.2-17.9c4.5-10.1,3.2-23.1-3.9-32.8c-0.9-1.2-1.7-2.5-2.4-3.9L750,529.9h-88.1
	c-16.5,0-29.9-13.4-29.9-29.9s13.4-29.9,29.9-29.9h106.3c11.2,0,21.4,6.2,26.5,16.2l98.6,190.9c18.4,26.7,21.6,61.5,8.1,91.5
	C885.2,801.2,853.5,820.7,818.3,820.7z"/>
<path d="M843.8,692.7"/>
</svg>
