<?xml version="1.0" standalone="no"?><!DOCTYPE svg PUBLIC "-//W3C//DTD SVG 1.1//EN" "http://www.w3.org/Graphics/SVG/1.1/DTD/svg11.dtd"><svg t="1510556637864" class="icon" style="" viewBox="0 0 1024 1024" version="1.1" xmlns="http://www.w3.org/2000/svg" p-id="4891" xmlns:xlink="http://www.w3.org/1999/xlink" width="200" height="200"><defs><style type="text/css"></style></defs><path d="M369.785509 204.296943l26.177196 0 0 14.507412c0 2.870374 0.867764 5.455245 2.097778 7.853875 1.245364 6.828522 6.907317 12.016685 14.019295 12.016685 4.856611 0 8.940626-2.492774 11.57564-6.133697 4.273327-3.201925 7.221472-8.027837 7.221472-13.735839l0-14.507412 20.311605 0c9.651824 0 17.472953-7.853875 17.472953-17.472953s-7.822153-17.472953-17.472953-17.472953l-20.311605 0 0-21.794375c0-9.651824-7.822153-17.47193-17.472953-17.47193s-17.441231 7.821129-17.441231 17.47193l0 21.794375-26.177196 0c-9.620102 0-17.442254 7.853875-17.442254 17.472953S360.164385 204.296943 369.785509 204.296943z" p-id="4892"></path><path d="M768.756223 833.711096l-1.167592-3.502777c-48.949852-118.903064-149.102876-203.334012-267.642666-229.953276 71.593572-51.02921 120.163777-160.469762 120.163777-290.586215 0-82.759889-20.404726-161.291476-57.464783-221.138516l-4.399193-7.096628-7.836479-2.885723c-90.328261-33.17968-193.871499-33.17968-284.136316 0l-7.837502 2.885723-4.399193 7.096628c-37.074384 59.814294-57.496505 138.363278-57.496505 221.138516 0 133.568065 51.109028 245.534136 125.856429 294.687626C212.025463 634.759905 118.590444 716.715475 71.83456 830.208319l-1.152243 3.502777c-4.50971 18.59245-12.300141 65.569368 12.884448 100.008738 9.93528 13.5936 29.158087 30.309306 64.261583 32.753985 32.343639 2.225691 123.381052 4.462638 271.91497 6.65456l1.087774 0 0.190335 0c147.192364-2.192945 238.231823-4.428869 270.65221-6.65456 35.041074-2.444679 54.248531-19.160385 64.183811-32.753985C781.05534 899.280464 773.235235 852.317872 768.756223 833.711096zM275.418258 111.321388c84.718497-28.888957 181.024913-28.888957 265.850857 0 30.352285 52.563146 47.511083 119.426996 50.687426 190.703343-163.634848-32.244378-305.59607-12.140505-367.263571 0.268106C227.836567 230.892671 245.011738 163.93877 275.418258 111.321388zM226.880799 326.020238c49.459458-10.613732 196.695824-35.317367 362.903264-0.316202-10.190083 150.692071-89.098247 272.41332-181.459818 272.41332C316.033281 598.11838 237.177306 476.573139 226.880799 326.020238zM737.757209 912.962068c-6.14393 8.376785-16.138562 12.93459-30.456662 13.944594-33.766035 2.314719-130.288368 4.660136-286.965757 6.990205l0.387833 25.931602-1.63729-25.931602c-156.677389-2.330068-253.199723-4.675486-286.880823-6.990205-14.400988-1.010003-24.396643-5.568832-30.524201-13.944594-11.193947-15.312754-10.333346-41.871643-5.67321-62.331627 56.171324-134.324288 181.665503-221.340107 319.987848-222.015489l3.749394 0.23536c1.131777 0 2.38021-0.084934 3.443425-0.100284 138.644687 0.539282 264.122493 87.556125 320.241628 221.861994C748.089531 871.090425 748.934782 897.64829 737.757209 912.962068z" p-id="4893"></path><path d="M952.186929 825.239144c-38.572504-120.841206-123.443473-166.478615-179.614797-196.676381-8.958022-4.825912-17.250896-9.273201-24.632004-13.687744-10.154267-5.946432-20.563338-10.866489-29.773094-15.202237-5.17179-2.444679-11.606339-5.474688-16.148795-7.995091C829.437258 402.378323 813.101197 233.989195 812.407396 227.682559c-4.984524-96.841605-98.529037-131.566478-147.289578-136.408763l-16.052604-1.592264-3.186576 32.137954 16.08535 1.593288c4.603855 0.456395 113.352651 12.314467 118.27066 106.807584 0.064468 0.756223 3.217275 35.812647-4.981455 90.674139-36.963866-14.744819-92.505857-18.24555-100.075253-18.62315l-1.64036 32.264844c27.505447 1.402953 73.959455 7.615445 95.846952 18.608823-13.243629 63.125713-41.125653 144.228869-99.790774 228.739635l-1.766226 3.294023c-8.766664 22.346961 15.329127 33.685193 36.586267 43.698245 8.391111 3.973498 17.913998 8.436136 27.093055 13.812587 7.662517 4.558829 16.369829 9.256828 25.767873 14.302751 54.689576 29.395494 129.562844 69.654406 163.625638 175.689395 6.401804 40.717354 0.251733 53.679573-2.681062 57.369615-1.388627 1.750877-3.628644 3.578502-9.399067 3.973498-21.479197 1.435699-50.116421 2.208295-50.211589 2.208295l0.883113 32.29759c0 0 29.427216-0.804319 51.506071-2.272763 13.780865-0.945535 24.724101-6.338359 32.481785-16.067954C956.19215 894.248867 959.126992 868.024599 952.186929 825.239144z" p-id="4894"></path></svg>