<?xml version="1.0" standalone="no"?><!DOCTYPE svg PUBLIC "-//W3C//DTD SVG 1.1//EN" "http://www.w3.org/Graphics/SVG/1.1/DTD/svg11.dtd"><svg t="1511352724884" class="icon" style="" viewBox="0 0 1024 1024" version="1.1" xmlns="http://www.w3.org/2000/svg" p-id="1557" xmlns:xlink="http://www.w3.org/1999/xlink" width="200" height="200"><defs><style type="text/css"></style></defs><path d="M477.715661 66.48625c-49.54337 2.965541-105.784278 19.177781-133.23242 50.046836-10.111289 11.370978-4.51892 134.573975-4.02671 161.303756 96.896864-71.081918 209.862705-58.726519 308.491003-2.01796 0-53.084009 0-106.189508 0-159.282726 0-12.56927-103.193267-44.491307-115.855658-47.061852C517.430174 66.292845 498.141876 65.264423 477.715661 66.48625zM496.169965 199.420889c-25.056676-1.741667-49.359174-36.791951-56.921407-58.70196-4.377704-12.68388 7.79964-32.141024 20.72809-35.649941 12.990872-3.52529 22.032806 7.208169 34.146705 8.04728 12.669554 0.876973 23.837918-8.971325 36.258809-5.399987 44.959981 12.94073 9.305947 57.834196-7.324826 78.132498C514.507612 196.277292 505.288646 200.055338 496.169965 199.420889z" p-id="1558"></path><path d="M487.642754 128.632659c4.707209 0 9.411347 0 14.117532 0 0 6.04467 0 12.099572 0 18.144242 6.714935 0.669242 13.440104 1.349741 20.163225 2.018983 0 4.705162 0 9.41237 0 14.117532-6.723122 0-13.449313 0-20.163225 0 0 6.04467 0 12.090363 0 18.144242-4.706185 0-9.410324 0-14.117532 0 0-6.054903 0-12.099572 0-18.144242-6.045693 0-12.099572 0-18.144242 0 0-5.374404 0-10.761088 0-16.136515 6.04467 0 12.098549 0 18.144242 0C487.642754 140.733255 487.642754 134.677329 487.642754 128.632659z" p-id="1559"></path><path d="M477.473137 254.314103c32.959669-1.861394 66.607 2.952238 96.774067 12.296047 19.222807 5.953595 86.284155 33.58184 86.799902 59.616796 2.096754 105.915261-59.347666 200.193485-145.177474 217.757512-110.463858 22.624277-188.388625-118.673843-187.513698-215.727273 0.075725-8.43716 46.538943-39.703257 54.543244-44.939515C410.723897 265.120216 443.737802 256.220522 477.473137 254.314103z" p-id="1560"></path><path d="M667.091776 493.577419c-55.773258 95.439676-111.566982 190.880375-167.349449 286.319028 0 1.358951 0 2.698458 0 4.03592-52.416813-96.759741-104.852046-193.576787-157.26886-290.355971-97.073896 44.61922-132.970454 67.932182-167.359682 175.422312-14.620999 45.700855-11.498892 107.785865 22.181185 133.088134 87.415932 65.629743 375.301641 73.760934 512.140193 40.326451 43.151799-10.553357 102.114702-24.927739 122.997312-58.480926C904.756687 667.779949 761.202177 512.835018 667.091776 493.577419zM415.053506 816.186977c-54.011124 16.028045-115.898637-5.021364-159.28682-18.136056 3.367701-10.081613 6.724145-20.163225 10.081613-30.244838 42.393529 11.833513 85.830831 22.74298 143.159514 18.135032 2.01796 9.41237 4.03592 18.824741 6.04467 28.237111C415.053506 814.847469 415.053506 815.517735 415.053506 816.186977zM584.431148 824.25984c-0.679475-1.339508-1.348718-2.677992-2.018983-4.036943 2.018983-9.391904 4.027733-18.804275 6.04467-28.215622 49.492204 4.844332 107.10639 1.812275 139.123594-18.153452 7.67889 5.570879 12.386098 19.138896 14.118556 30.243815C696.076924 822.487473 643.698996 828.02049 584.431148 824.25984z" p-id="1561"></path></svg>