<?xml version="1.0" standalone="no"?><!DOCTYPE svg PUBLIC "-//W3C//DTD SVG 1.1//EN" "http://www.w3.org/Graphics/SVG/1.1/DTD/svg11.dtd"><svg t="1515749871364" class="icon" style="" viewBox="0 0 1024 1024" version="1.1" xmlns="http://www.w3.org/2000/svg" p-id="728" xmlns:xlink="http://www.w3.org/1999/xlink" width="48" height="48"><defs><style type="text/css"></style></defs><path d="M512.5 498.7c-8.3 0-15 6.7-15 15s6.7 15 15 15 15-6.7 15-15-6.7-15-15-15z m0 27.5c-6.9 0-12.5-5.6-12.5-12.5s5.6-12.5 12.5-12.5 12.5 5.6 12.5 12.5-5.6 12.5-12.5 12.5z" fill="#00A65A" p-id="729"></path><path d="M512.5 505.7c-1.1 0-2 0.9-2 2v12c0 1.1 0.9 2 2 2s2-0.9 2-2v-12c0-1.1-0.9-2-2-2z" fill="#00A65A" p-id="730"></path><path d="M520.5 513.7c0-1.1-0.9-2-2-2h-12c-1.1 0-2 0.9-2 2s0.9 2 2 2h12c1.1 0 2-0.9 2-2z" fill="#00A65A" p-id="731"></path><path d="M512.5 113.7c-220.9 0-400 179.1-400 400s179.1 400 400 400 400-179.1 400-400-179.1-400-400-400z m0 733.3c-184.1 0-333.3-149.2-333.3-333.3s149.2-333.3 333.3-333.3 333.3 149.2 333.3 333.3S696.6 847 512.5 847z" fill="#00A65A" p-id="732"></path><path d="M725.8 513.7c0-29.5-23.9-53.3-53.3-53.3h-320c-29.5 0-53.3 23.9-53.3 53.3 0 29.5 23.9 53.3 53.3 53.3h320c29.5 0 53.3-23.9 53.3-53.3z" fill="#00A65A" p-id="733"></path></svg>