<?xml version="1.0" standalone="no"?><!DOCTYPE svg PUBLIC "-//W3C//DTD SVG 1.1//EN" "http://www.w3.org/Graphics/SVG/1.1/DTD/svg11.dtd"><svg t="1510556955121" class="icon" style="" viewBox="0 0 1024 1024" version="1.1" xmlns="http://www.w3.org/2000/svg" p-id="9055" xmlns:xlink="http://www.w3.org/1999/xlink" width="200" height="200"><defs><style type="text/css"></style></defs><path d="M363.464547 884.22456 141.407102 884.22456 141.407102 107.535155 880.234177 107.535155 880.234177 591.734996 855.674828 591.734996 855.674828 132.094504 165.966451 132.094504 165.966451 859.665211 338.905198 859.665211 338.905198 624.304785 633.261273 624.304785 633.261273 648.864134 363.464547 648.864134Z" p-id="9056"></path><path d="M347.091648 325.499375l324.388065 0 0 61.398372-324.388065 0 0-61.398372Z" p-id="9057"></path><path d="M479.609801 198.097754l61.398372 0 0 324.388065-61.398372 0 0-324.388065Z" p-id="9058"></path><path d="M774.389524 927.20342c-102.645798 0-186.153724-83.507926-186.153724-186.153724s83.507926-186.153724 186.153724-186.153724 186.153724 83.507926 186.153724 186.153724S877.035322 927.20342 774.389524 927.20342zM774.389524 579.455321c-89.103364 0-161.594375 72.491011-161.594375 161.594375s72.491011 161.594375 161.594375 161.594375 161.594375-72.491011 161.594375-161.594375S863.492888 579.455321 774.389524 579.455321z" p-id="9059"></path><path d="M671.479713 659.1852l207.364815 0 0 24.559349-207.364815 0 0-24.559349Z" p-id="9060"></path><path d="M671.9709 729.48736l207.362768 0 0 24.559349-207.362768 0 0-24.559349Z" p-id="9061"></path><path d="M672.459017 800.401456l207.363791 0 0 24.559349-207.363791 0 0-24.559349Z" p-id="9062"></path></svg>