<?xml version="1.0" standalone="no"?><!DOCTYPE svg PUBLIC "-//W3C//DTD SVG 1.1//EN" "http://www.w3.org/Graphics/SVG/1.1/DTD/svg11.dtd"><svg t="1510811262471" class="icon" style="" viewBox="0 0 1085 1024" version="1.1" xmlns="http://www.w3.org/2000/svg" p-id="2184" xmlns:xlink="http://www.w3.org/1999/xlink" width="211.9140625" height="200"><defs><style type="text/css"></style></defs><path d="M884.243 933.875c0 0-694.852 0-694.852 0-43.081 0-99.265-55.985-99.265-99.265 0 0 0-744.485 0-744.485 0 0 744.485 0 744.485 0 0 0 0 198.529 0 198.529 0 0 148.898 0 148.898 0 0 0 0 545.956 0 545.956 0 43.279-56.183 99.265-99.265 99.265zM784.977 189.39c0-27.397-22.235-49.632-49.632-49.632 0 0-545.955 0-545.955 0-27.397 0-49.632 22.235-49.632 49.632 0 0 0 645.221 0 645.221 0 27.397 22.235 49.632 49.632 49.632 0 0 545.956 0 545.956 0 27.397 0 49.632-22.235 49.632-49.632 0 0 0-645.221 0-645.221zM933.875 338.286c0 0-99.265 0-99.265 0s0 496.324 0 496.324c0 21.59 28.141 49.632 49.632 49.632 0 0 49.632-8.835 49.632-49.632 0 0 0-496.324 0-496.324zM189.39 735.346c0 0 545.956 0 545.956 0s0 49.632 0 49.632c0 0-545.956 0-545.956 0 0 0 0-49.632 0-49.632zM189.39 586.449c0 0 545.956 0 545.956 0s0 49.632 0 49.632c0 0-545.956 0-545.956 0 0 0 0-49.632 0-49.632zM487.183 437.551c0 0 248.161 0 248.161 0s0 49.632 0 49.632c0 0-248.161 0-248.161 0 0 0 0-49.632 0-49.632zM487.183 239.023c0 0 248.161 0 248.161 0s0 49.632 0 49.632c0 0-248.161 0-248.161 0 0 0 0-49.632 0-49.632zM189.39 239.023c0 0 248.161 0 248.161 0s0 248.162 0 248.162c0 0-248.161 0-248.161 0 0 0 0-248.162 0-248.162z" p-id="2185"></path></svg>