<?xml version="1.0" standalone="no"?><!DOCTYPE svg PUBLIC "-//W3C//DTD SVG 1.1//EN" "http://www.w3.org/Graphics/SVG/1.1/DTD/svg11.dtd"><svg t="1510554614669" class="icon" style="" viewBox="0 0 1024 1024" version="1.1" xmlns="http://www.w3.org/2000/svg" p-id="4205" xmlns:xlink="http://www.w3.org/1999/xlink" width="200" height="200"><defs><style type="text/css"></style></defs><path d="M259.908518 652.042523l224.074382 0 0 56.035224-224.074382 0 0-56.035224Z" p-id="4206"></path><path d="M399.963321 287.919479 399.963321 203.898877 343.93833 203.898877 343.93833 287.919479 287.934828 287.919479 259.908518 287.919479 259.908518 343.940376 287.934828 343.940376 343.93833 343.940376 343.93833 427.968142 399.963321 427.968142 399.963321 343.940376 455.981149 343.940376 483.9829 343.940376 483.9829 287.919479 455.981149 287.919479Z" p-id="4207"></path><path d="M259.908518 512l224.074382 0 0 56.004525-224.074382 0 0-56.004525Z" p-id="4208"></path><path d="M736.083591 652.052756l56.017828 0 0 56.024991-56.017828 0 0-56.024991Z" p-id="4209"></path><path d="M850.461595 371.948267c-52.529377 0-140.868331 0-198.417025 0 0-89.421612 0-168.740122 0-219.406059 0-57.574277-25.667589-88.702228-84.017532-88.702228-65.37801 0-323.839573 0-389.828496 0-59.107189 0-86.346577 32.682353-86.346577 84.027765 0 191.57827 0 812.291251 0 812.291251l504.176824 0 56.016805 0 280.103466 0c0 0 0-363.78126 0-506.523265C932.148036 398.410965 905.706827 371.948267 850.461595 371.948267zM596.027765 371.948267c0 224.966705 0 532.198018 0 532.198018L483.9829 904.146285 483.9829 792.106536 259.908518 792.106536l0 112.039749L147.863652 904.146285c0 0 0-576.387449 0-728.266555 0-30.345122 21.007453-56.019875 56.028061-56.019875 48.817846 0 287.300378 0 336.12027 0 30.349215 0 56.016805 25.674753 56.016805 56.019875C596.027765 216.853933 596.027765 288.833291 596.027765 371.948267zM876.113835 904.146285l-84.012416 0L792.101419 792.106536l-56.017828 0 0 112.039749L652.04457 904.146285 652.04457 427.985538c0 0 119.199823 0 168.0586 0 28.027333 0 56.011688 25.664519 56.011688 56.002478C876.113835 592.352049 876.113835 904.146285 876.113835 904.146285z" p-id="4210"></path><path d="M736.083591 512.01228l56.017828 0 0 56.007595-56.017828 0 0-56.007595Z" p-id="4211"></path></svg>