<?xml version="1.0" standalone="no"?><!DOCTYPE svg PUBLIC "-//W3C//DTD SVG 1.1//EN" "http://www.w3.org/Graphics/SVG/1.1/DTD/svg11.dtd"><svg t="1510926301197" class="icon" style="" viewBox="0 0 1024 1024" version="1.1" xmlns="http://www.w3.org/2000/svg" p-id="2898" xmlns:xlink="http://www.w3.org/1999/xlink" width="200" height="200"><defs><style type="text/css"></style></defs><path d="M402.589184 409.415121h303.336996v23.100177H402.589184v-23.100177z m0 138.614441h303.336996v23.100177H402.589184v-23.100177z m0 138.613225h303.336996v23.100177H402.589184v-23.100177z m-82.727387-277.714191h27.578633v23.10261h-27.578633v-23.10261z m0 138.614442h27.578633v23.102609h-27.578633v-23.102609z m0 138.613225h27.578633v23.102609h-27.578633v-23.102609z m358.48575-390.812862c15.229429 0 27.576201 10.345941 27.576201 23.10261v44.761458H319.861797v-44.761458c0-12.757885 12.345556-23.10261 27.576201-23.10261h82.727387s0.336918-32.857423 0.336918-70.400076c0-38.982765 35.856846-71.585979 82.391686-71.585979s83.656649 34.26956 83.656648 71.80978c0 40.430175-0.929262 70.176275-0.929261 70.176275h82.726171z m-165.454775-72.678226c-15.229429 0-27.576201 10.343508-27.576201 23.102609 0 12.757885 12.345556 23.100177 27.576201 23.100177 15.229429 0 27.576201-10.343508 27.576201-23.100177-0.001216-12.759102-12.345556-23.10261-27.576201-23.102609z" ></path><path d="M739.783411 869.998009H285.988754c-39.030201 0-70.799026-31.768825-70.799026-70.818487V295.759379c0-39.049662 31.768825-70.818487 70.799026-70.818486h115.930243v41.653783h-115.930243c-16.067467 0-29.145242 13.077775-29.145242 29.16592v503.420143c0 16.088145 13.077775 29.16592 29.145242 29.165919h453.794657c16.067467 0 29.16592-13.077775 29.16592-29.165919V295.759379c0-16.088145-13.098452-29.16592-29.16592-29.165919h-116.43866v-41.653784h116.43866c39.049662 0 70.818487 31.768825 70.818487 70.818487v503.420143c0.001216 39.050878-31.767609 70.819703-70.818487 70.819703z" ></path></svg>