<?xml version="1.0" standalone="no"?><!DOCTYPE svg PUBLIC "-//W3C//DTD SVG 1.1//EN" "http://www.w3.org/Graphics/SVG/1.1/DTD/svg11.dtd"><svg t="1512721395787" class="icon" style="" viewBox="0 0 1024 1024" version="1.1" xmlns="http://www.w3.org/2000/svg" p-id="7025" xmlns:xlink="http://www.w3.org/1999/xlink" width="48" height="48"><defs><style type="text/css"></style></defs><path d="M127.047827 0v1022.9222l807.352173 1.078797V0H127.047827z m745.537685 962.100763l-683.720206-0.913288V61.816482h683.720206v900.284281z" fill="#ffffff" p-id="7026"></path><path d="M367.947655 574.283097h324.030036c10.873719 0 19.687553-8.813834 19.687553-19.685558 0-10.873719-8.813834-19.687553-19.687553-19.687553H367.947655c-10.872722 0-19.686556 8.813834-19.686555 19.687553 0 10.871725 8.813834 19.685558 19.686555 19.685558zM299.155881 705.464652h461.612588c10.872722 0 19.687553-8.813834 19.687552-19.687553 0-10.871725-8.814831-19.687553-19.687552-19.687552H299.155881c-10.872722 0-19.687553 8.815828-19.687553 19.687552 0.000997 10.873719 8.814831 19.687553 19.687553 19.687553zM691.977691 797.270104H367.947655c-10.872722 0-19.686556 8.813834-19.686555 19.687553 0 10.871725 8.813834 19.685558 19.686555 19.685558h324.030036c10.873719 0 19.687553-8.813834 19.687553-19.685558 0-10.873719-8.813834-19.687553-19.687553-19.687553zM522.390154 429.492943c81.127154 0 146.894906-65.766755 146.894906-146.894906 0-0.112666-0.003988-0.225331-0.004985-0.337996 0.000997-0.112666 0.004985-0.224334 0.004985-0.337 0-80.762237-65.469637-146.232871-146.231874-146.232871-1.338028 0-2.67107 0.020938-4.000125 0.056831-79.58573 1.774731-143.557813 66.840567-143.557813 146.852033 0 81.127154 65.766755 146.893909 146.894906 146.893909z m-34.427792-212.893971c0-7.158747 5.802773-12.96152 12.96152-12.961521s12.96152 5.802773 12.961521 12.961521v87.135317h87.136314c7.158747 0 12.96152 5.802773 12.96152 12.96152s-5.802773 12.96152-12.96152 12.961521H500.923882c-7.158747 0-12.96152-5.802773-12.96152-12.961521V216.598972z" fill="#ffffff" p-id="7027"></path></svg>