<?xml version="1.0" standalone="no"?><!DOCTYPE svg PUBLIC "-//W3C//DTD SVG 1.1//EN" "http://www.w3.org/Graphics/SVG/1.1/DTD/svg11.dtd"><svg t="1512721192265" class="icon" style="" viewBox="0 0 1024 1024" version="1.1" xmlns="http://www.w3.org/2000/svg" p-id="5157" xmlns:xlink="http://www.w3.org/1999/xlink" width="48" height="48"><defs><style type="text/css"></style></defs><path d="M205.078749 346.085226c-16.72287 0-23.51967 6.830569-23.51967 23.51967 0 16.692171 6.797823 23.51967 23.51967 23.51967h258.720459c16.72287 0 23.51967-6.830569 23.51967-23.51967 0-16.690124-6.797823-23.51967-23.51967-23.51967H205.078749zM346.198813 887.043768H205.078749c-50.116421 0-94.080725-62.071707-94.080726-117.598348V252.004501c0-55.516408 43.963281-117.602442 94.080726-117.602442h564.481281c50.109258 0 94.080725 62.086034 94.080726 117.602442v47.040363c0 16.690124 6.79987 23.517623 23.519669 23.517623 16.72287 0 25.107841-6.821359 25.107841-23.51046v-50.453089c0-88.896656-67.928089-161.235195-151.492296-161.235195H215.436654c-83.500762 0-151.488203 72.338538-151.488203 161.235195v524.238742c0 88.969311 67.987441 161.246451 151.488203 161.246451h121.18913c16.720823 0 33.092699-6.839779 33.092699-23.517623 0.001023-16.703427-6.7968-23.52274-23.51967-23.52274z m445.096241-289.686728c45.709041-32.989345 72.345702-96.725972 72.345702-157.194158 0-85.058235-78.486562-164.637688-188.160428-164.637688-74.17742 0-164.640758 64.602344-164.640757 164.637688 0 60.470233 22.233374 124.204813 67.949578 157.196205-96.477308 48.241724-166.428473 154.676825-166.428474 245.99667 0 16.690124 11.195993 43.689035 27.91784 43.689035 16.734126 0 24.063045-16.864086 23.51967-47.037293-1.503237-83.630722 81.45722-216.773092 211.680097-211.683167 130.948401-12.969383 235.20079 128.041188 235.20079 211.683167 0 16.690124 6.78759 47.037293 23.519669 47.037293 16.72287 0 23.52274-26.998911 23.52274-43.689035 0.002047-91.318822-57.747215-183.019337-166.426427-245.998717z m-115.814726-16.071024c-66.884316-0.927115-117.600395-74.356498-117.600395-141.123134 0-53.612035 50.708915-117.600395 117.600395-117.600395 67.786873-0.541329 141.120065 50.885947 141.120065 117.600395 0 66.766636-44.046169 141.505851-141.120065 141.123134z m-282.241152-70.563102H215.436654c-16.72287 0-33.878598 6.832615-33.878598 23.522739s6.797823 23.517623 23.519669 23.517623h188.160428c16.72287 0.005117 23.51967-6.827499 23.519669-23.517623 0.001023-16.694217-6.795776-23.52274-23.518646-23.522739z" fill="#666666" p-id="5158"></path></svg>