<?xml version="1.0" encoding="utf-8"?>
<!-- Generator: Adobe Illustrator 21.0.0, SVG Export Plug-In . SVG Version: 6.00 Build 0)  -->
<svg version="1.1" id="图层_1" xmlns="http://www.w3.org/2000/svg" xmlns:xlink="http://www.w3.org/1999/xlink" x="0px" y="0px"
	 viewBox="0 0 1024 1024" style="enable-background:new 0 0 1024 1024;" xml:space="preserve">
	<rect x="433.5" y="436.4" class="st0" width="156.8" height="218" fill='#FFE2BD'/> 
	<path class="st1" d="M599.6,624.8l-88,13.7l-87.2-13.7C280.1,624.8,162,742.9,162,887.2v85.4h700v-85.4
		C862,742.9,743.9,624.8,599.6,624.8z" fill='#F3FFF3'/>
	<path class="st2" d="M311.2,412c-33.8,19.7-90.1-121,0-115.4C401.3,302.3,311.2,412,311.2,412L311.2,412z M705.6,412
		c33.8,19.7,90.1-121,0-115.4C615.5,302.3,705.6,412,705.6,412L705.6,412z M705.6,412" fill='#FFEFCF'/>
	<path class="st2" d="M726.2,338.7c0,118.7-96.2,247.2-214.9,247.2c-118.7,0-214.9-128.5-214.9-247.2
		c0-118.7,96.2-214.9,214.9-214.9C629.9,123.7,726.2,220,726.2,338.7L726.2,338.7z M708.8,722.5" fill='#FFEFCF'/>
	<path class="st3" d="M451.8,687.2" fill='#E5EAF9'/>
	<path class="st4" d="M449.5,681.4" fill='#F3F7FF'/>
	<path class="st3" d="M572.1,692.8"  fill='#E5EAF9'/>
	<path class="st4" d="M574.4,687"  fill='#F3F7FF'/>
	<path class="st5" d="M589.2,536.6" fill='#F4C7A8'/>
	<path class="st6" d="M697,222.5c0,0-2.3,48,18.3,117c0,0,89.9-261.2-79.1-261.2c0,0-437.5-152.1-334.4,266.5c0,0,2.9,11.7,8,21.2
		C379.2,263.4,608.8,296.7,697,222.5L697,222.5z M697,222.5" fill='#574544'/>
	<path class="st7" d="M512.2,634.9c0,0,25.7,43.2,89.5,55.9c0,0,32.9-43.7,30.5-70.4L512.2,634.9z M512.2,634.9" fill='#A1E0C7'/>
	<path class="st7" d="M512.2,634.9c0,0-25.7,43.2-89.5,55.9c0,0-32.9-43.7-30.5-70.4L512.2,634.9z M512.2,634.9"  fill='#A1E0C7'/>
	<path class="st7" d="M499.2,676.1c0,4,2.1,7.7,5.6,9.6c3.4,2,7.7,2,11.1,0c3.4-2,5.6-5.7,5.6-9.6c0-4-2.1-7.7-5.6-9.6
		c-3.4-2-7.7-2-11.1,0C501.3,668.5,499.2,672.2,499.2,676.1L499.2,676.1z M499.2,676.1"  fill='#A1E0C7'/>
	<path class="st7" d="M499.1,718.8c0,4,2.1,7.7,5.6,9.6c3.4,2,7.7,2,11.1,0c3.4-2,5.6-5.7,5.6-9.6c0-6.2-5-11.1-11.1-11.1
		C504.1,707.7,499.1,712.7,499.1,718.8L499.1,718.8z M499.1,718.8"  fill='#A1E0C7'/>
	<path class="st7" d="M499.1,762.3c0,4,2.1,7.7,5.6,9.6c3.4,2,7.7,2,11.1,0c3.4-2,5.6-5.7,5.6-9.6c0-6.1-5-11.1-11.1-11.1
		C504.1,751.2,499.1,756.2,499.1,762.3L499.1,762.3z M499.1,762.3"  fill='#A1E0C7'/>
</svg>
