<?xml version="1.0" standalone="no"?><!DOCTYPE svg PUBLIC "-//W3C//DTD SVG 1.1//EN" "http://www.w3.org/Graphics/SVG/1.1/DTD/svg11.dtd"><svg t="1510925827524" class="icon" style="" viewBox="0 0 1024 1024" version="1.1" xmlns="http://www.w3.org/2000/svg" p-id="2105" xmlns:xlink="http://www.w3.org/1999/xlink" width="200" height="200"><defs><style type="text/css"></style></defs><path d="M826.176 267.648l-104.704 0L721.472 232.704C721.472 173.376 676.096 128 616.768 128L407.296 128C347.904 128 302.528 173.376 302.528 232.704l0 34.944L197.824 267.648c-59.328 0-104.704 45.376-104.704 104.704l0 418.944C93.12 850.624 138.496 896 197.824 896l628.352 0c59.328 0 104.704-45.376 104.704-104.768L930.88 372.352C930.88 313.024 885.504 267.648 826.176 267.648zM372.352 232.704c0-20.928 13.952-34.88 34.944-34.88l209.472 0c20.928 0 34.88 13.952 34.88 34.88l0 34.944L372.352 267.648 372.352 232.704zM861.056 791.232c0 20.928-13.952 34.88-34.88 34.88L197.824 826.112c-20.928 0-34.88-13.952-34.88-34.88L162.944 372.352c0-20.928 13.952-34.88 34.88-34.88l104.704 0 418.944 0 104.704 0c20.928 0 34.88 13.952 34.88 34.88L861.056 791.232z" p-id="2106"></path><path d="M651.648 546.944 546.88 546.944 546.88 442.176c0-20.928-13.952-34.88-34.88-34.88-20.992 0-34.944 13.952-34.944 34.88l0 104.768L372.352 546.944c-20.928 0-34.88 13.952-34.88 34.88 0 20.928 13.952 34.88 34.88 34.88l104.704 0 0 104.768c0 20.928 14.016 34.88 34.944 34.88s34.88-13.952 34.88-34.88L546.88 616.704l104.768 0c20.928 0 34.88-13.952 34.88-34.88S672.576 546.944 651.648 546.944z" p-id="2107"></path></svg>