<?xml version="1.0" standalone="no"?><!DOCTYPE svg PUBLIC "-//W3C//DTD SVG 1.1//EN" "http://www.w3.org/Graphics/SVG/1.1/DTD/svg11.dtd"><svg t="1513836368426" class="icon" style="" viewBox="0 0 1024 1024" version="1.1" xmlns="http://www.w3.org/2000/svg" p-id="1884" xmlns:xlink="http://www.w3.org/1999/xlink" width="48" height="48"><defs><style type="text/css"></style></defs><path d="M552.1 1024c-2 0-4-0.1-6.1-0.5-18.2-2.7-32.4-17.2-34.8-35.5l-50.3-396.7-387-38.4c-18.4-1.8-33.4-15.7-36.5-34-3.1-18.3 6.3-36.3 23.1-44.2L928.6 67.9c15.6-7.3 34.1-4.1 46.3 7.9 12.3 12.1 15.7 30.5 8.7 46.2l-394 877.7c-6.7 14.9-21.5 24.3-37.5 24.3zM230.8 485.8l270.9 26.9c19.1 1.9 34.3 16.7 36.8 35.8l36 284.1 288.7-643-632.4 296.2z" p-id="1885" fill="#7dc5eb"></path></svg>