<?xml version="1.0" standalone="no"?><!DOCTYPE svg PUBLIC "-//W3C//DTD SVG 1.1//EN" "http://www.w3.org/Graphics/SVG/1.1/DTD/svg11.dtd"><svg t="1510556761563" class="icon" style="" viewBox="0 0 1024 1024" version="1.1" xmlns="http://www.w3.org/2000/svg" p-id="5597" xmlns:xlink="http://www.w3.org/1999/xlink" width="200" height="200"><defs><style type="text/css"></style></defs><path d="M892.121212 62.060606 131.878788 62.060606c-29.990788 0-54.30303 24.312242-54.30303 54.30303l0 791.272727c0 29.990788 24.312242 54.30303 54.30303 54.30303l760.242424 0c29.990788 0 54.30303-24.312242 54.30303-54.30303L946.424242 116.363636C946.424242 86.372848 922.112 62.060606 892.121212 62.060606zM899.878788 882.812121c0 17.994473-14.62303 32.581818-32.660945 32.581818L156.782158 915.393939C138.742691 915.393939 124.121212 900.806594 124.121212 882.812121L124.121212 141.187879c0-17.994473 14.621479-32.581818 32.660945-32.581818l710.435685 0C885.255758 108.606061 899.878788 123.193406 899.878788 141.187879L899.878788 882.812121zM479.418182 232.727273 249.793939 232.727273c-17.994473 0-32.581818 14.587345-32.581818 32.581818l0 229.624242c0 17.994473 14.587345 32.581818 32.581818 32.581818l229.624242 0c17.994473 0 32.581818-14.587345 32.581818-32.581818L512 265.309091C512 247.314618 497.412655 232.727273 479.418182 232.727273zM465.454545 457.69697c0 12.852752-10.419976 23.272727-23.272727 23.272727L287.030303 480.969697c-12.852752 0-23.272727-10.419976-23.272727-23.272727L263.757576 302.545455c0-12.852752 10.419976-23.272727 23.272727-23.272727l155.151515 0c12.852752 0 23.272727 10.419976 23.272727 23.272727L465.454545 457.69697zM581.818182 325.818182l15.515152 0 170.666667 0 15.515152 0c12.852752 0 23.272727-10.419976 23.272727-23.272727s-10.419976-23.272727-23.272727-23.272727l-15.515152 0L597.333333 279.272727l-15.515152 0c-12.852752 0-23.272727 10.419976-23.272727 23.272727S568.96543 325.818182 581.818182 325.818182zM783.515152 434.424242l-15.515152 0L597.333333 434.424242l-15.515152 0c-12.852752 0-23.272727 10.419976-23.272727 23.272727s10.419976 23.272727 23.272727 23.272727l15.515152 0 170.666667 0 15.515152 0c12.852752 0 23.272727-10.419976 23.272727-23.272727S796.367903 434.424242 783.515152 434.424242zM783.515152 744.727273l-15.515152 0-15.515152 0L271.515152 744.727273l-15.515152 0-15.515152 0c-12.852752 0-23.272727 10.419976-23.272727 23.272727s10.419976 23.272727 23.272727 23.272727l15.515152 0 15.515152 0 480.969697 0 15.515152 0 15.515152 0c12.852752 0 23.272727-10.419976 23.272727-23.272727S796.367903 744.727273 783.515152 744.727273zM240.484848 636.121212l15.515152 0 15.515152 0 480.969697 0 15.515152 0 15.515152 0c12.852752 0 23.272727-10.419976 23.272727-23.272727s-10.419976-23.272727-23.272727-23.272727l-15.515152 0-15.515152 0L271.515152 589.575758l-15.515152 0-15.515152 0c-12.852752 0-23.272727 10.419976-23.272727 23.272727S227.632097 636.121212 240.484848 636.121212z" p-id="5598"></path></svg>