<?xml version="1.0" standalone="no"?><!DOCTYPE svg PUBLIC "-//W3C//DTD SVG 1.1//EN" "http://www.w3.org/Graphics/SVG/1.1/DTD/svg11.dtd"><svg t="1510556934674" class="icon" style="" viewBox="0 0 1024 1024" version="1.1" xmlns="http://www.w3.org/2000/svg" p-id="8851" xmlns:xlink="http://www.w3.org/1999/xlink" width="200" height="200"><defs><style type="text/css"></style></defs><path d="M698.66333 385.67285c-143.858432 0-260.476453 116.630301-260.476453 260.476453 0 143.862525 116.618021 260.476453 260.476453 260.476453 143.854339 0 260.46008-116.613928 260.46008-260.476453S842.517669 385.67285 698.66333 385.67285z m-0.004093 488.194828c-125.762285 0-227.713258-101.947903-227.713258-227.717352 0-125.762285 101.951997-227.717352 227.713258-227.717352 125.766378 0 227.705072 101.947903 227.705072 227.717352s-101.938694 227.717352-227.705072 227.717352z" p-id="8852"></path><path d="M717.52491 654.646837l92.982718-0.382716 0.390903-31.260981h-76.041884l56.878429-92.474135-28.15627-12.598946-65.322752 104.950284-59.42953-104.169501-32.311917 7.122211 55.776328 97.153714h-75.463716V653.483338l95.021144 0.381694v41.475623h-95.021144v32.824593h95.021144V830.144874h35.676547V727.375256l93.373621 0.390903v-32.43369h-93.373621zM187.277314 497.18355h132.187625v40.531111H187.277314zM187.277314 365.399107h230.704382v40.539299h-230.704382zM187.277314 233.622852h413.625482v40.547485H187.277314z" p-id="8853"></path><path d="M402.685315 646.149303c0-163.460886 132.517129-295.978015 295.973922-295.978015 10.731412 0 21.303188 0.63445 31.737842 1.749853V84.461647H57.026808v831.247998h456.216509v-0.12996c0.358157 0.24457 0.691755 0.520863 1.049912 0.765433V877.464599c-67.947532-54.229089-111.607914-137.612171-111.607914-231.315296zM90.364077 882.372376v-764.57346h606.695732v201.282283c-179.934069 0.870834-325.546448 146.939607-325.546447 327.069127 0 92.929506 38.850843 176.678932 101.072976 236.223073H90.364077z" p-id="8854"></path></svg>