<?xml version="1.0" standalone="no"?><!DOCTYPE svg PUBLIC "-//W3C//DTD SVG 1.1//EN" "http://www.w3.org/Graphics/SVG/1.1/DTD/svg11.dtd"><svg t="1515725064198" class="icon" style="" viewBox="0 0 1024 1024" version="1.1" xmlns="http://www.w3.org/2000/svg" p-id="4361" xmlns:xlink="http://www.w3.org/1999/xlink" width="48" height="48"><defs><style type="text/css"></style></defs><path d="M512 1024C229.226667 1024 0 794.773333 0 512S229.226667 0 512 0s512 229.226667 512 512-229.226667 512-512 512zM213.333333 287.786667v448.426666A74.496 74.496 0 0 0 287.786667 810.666667h448.426666A74.496 74.496 0 0 0 810.666667 736.213333V287.786667A74.496 74.496 0 0 0 736.213333 213.333333H287.786667A74.496 74.496 0 0 0 213.333333 287.786667z m37.333334 0c0-20.48 16.64-37.12 37.12-37.12h448.426666c20.48 0 37.12 16.64 37.12 37.12v448.426666c0 20.48-16.64 37.12-37.12 37.12H287.786667c-20.48 0-37.12-16.64-37.12-37.12V287.786667z m74.666666 74.88v37.333333h373.333334V362.666667h-373.333334z m0 130.666666v37.333334h373.333334v-37.333334h-373.333334z m0 130.666667V661.333333H586.666667v-37.333333H325.333333z" fill="#f57f6d" p-id="4362"></path></svg>