<?xml version="1.0" standalone="no"?><!DOCTYPE svg PUBLIC "-//W3C//DTD SVG 1.1//EN" "http://www.w3.org/Graphics/SVG/1.1/DTD/svg11.dtd"><svg t="1515725527521" class="icon" style="" viewBox="0 0 1024 1024" version="1.1" xmlns="http://www.w3.org/2000/svg" p-id="10312" xmlns:xlink="http://www.w3.org/1999/xlink" width="48" height="48"><defs><style type="text/css"></style></defs><path d="M495.6 923.5H216.8c-42.4 0-76.9-37.7-76.9-84.1V187.5c0-46.4 34.3-84.1 76.4-84.1h538.3c42.4 0 76.9 37.7 76.9 84.1v347.7c0 11.8 9.6 21.4 21.4 21.4 11.8 0 21.4-9.6 21.4-21.4V187.5c0-69.9-53.6-126.8-119.6-126.8H216.3c-65.7 0-119.1 56.9-119.1 126.8v651.9c0 33.7 12.4 65.5 34.9 89.5 22.6 24.1 52.5 37.4 84.3 37.4h279.3c11.8 0 21.4-9.6 21.4-21.4-0.1-11.8-9.7-21.4-21.5-21.4z" fill="#6ca3f5" p-id="10313"></path><path d="M490.2 531H245.3c-13.5 0-24.5 11-24.5 24.5s11 24.5 24.5 24.5h244.9c13.8 0 24.5-10.8 24.5-24.5 0-13.4-11-24.5-24.5-24.5zM490.2 682.7H245.3c-13.5 0-24.5 11-24.5 24.5s11 24.5 24.5 24.5h244.9c13.5 0 24.5-11 24.5-24.5s-11-24.5-24.5-24.5zM772.8 418c0-13.5-8.8-24.5-19.5-24.5H240.8c-10.8 0-19.5 11-19.5 24.5s8.8 24.5 19.5 24.5h512.5c10.7 0 19.5-11 19.5-24.5zM240.8 285.4h512.5c10.8 0 19.5-11 19.5-24.5s-8.8-24.5-19.5-24.5H240.8c-10.8 0-19.5 11-19.5 24.5s8.7 24.5 19.5 24.5zM866.4 900.4H611.1c-20.9 0-30.8 7.9-31.3 25v38.1h318v-37.2c-0.1-17.4-10.3-25.9-31.4-25.9zM837.5 771.5c31.6-49.2 20.6-114.1-25.6-151-20.6-16.5-46.8-25.6-73.6-25.6-30.8 0-59.9 11.9-81.9 33.5-41.7 40.7-42.6 110.5-2.4 163.3-0.4 0.4-0.7 0.9-1.1 1.5-1.6 2-2.8 3.5-3.8 4.6-0.9 1.1-1.6 1.9-2.2 2.7-9.1 12.5-12.5 31.7-8.1 46.7 7.4 24.6 31.6 27.1 40.7 28.1h0.3c8.5 0.5 16.3 0.9 26 0.9h17.3c10.8-0.5 21.1-0.5 32-0.5 4.2 0 8.5-0.1 12.7-0.1v-3l0.2 3c8.5-0.1 17.3-0.2 26 0.1h1.5c26.1 0 37.9-13.8 43.3-25.5 8.2-18.3 4.5-37.8-10.2-53.4l-5.6-5.6c4.8-6.3 9.9-12.8 14.5-19.7zM800.7 748c-3.8 5.9-8.5 11.5-14.1 18.1l-0.8 0.8-0.2 0.2c-13.6 16.6-12.8 35.8 2 50.1l8.6 8.6c3.5 3.5 2.9 4.7 2.1 6.2-0.4 0.1-1.5 0.4-4.3 0.4h-40.4c-10.8 0.5-21.8 0.5-32.5 0.5h-15.8c-8.6 0-15.9-0.5-22-0.9h-0.2c-0.6 0-2.1-0.2-3.6-0.4 0.1-2.1 0.7-5 1.5-7 0.8-1.1 1.9-2.7 3.5-4.3l0.2-0.2c0.5-0.6 0.9-1.2 1.4-1.7 1-1.3 1.9-2.5 2.5-3l0.2-0.2c12.7-15.8 12.9-32.8 0.4-48-24.6-30.3-34.2-78.9-3.4-109.3 13.9-13.9 31.9-21.2 52-21.2 16.7 0 33.8 6 46.9 16.5 29 23.4 35.9 64.1 16 94.8z" fill="#6ca3f5" p-id="10314"></path></svg>