<?xml version="1.0" standalone="no"?><!DOCTYPE svg PUBLIC "-//W3C//DTD SVG 1.1//EN" "http://www.w3.org/Graphics/SVG/1.1/DTD/svg11.dtd"><svg t="1511344512249" class="icon" style="" viewBox="0 0 1024 1024" version="1.1" xmlns="http://www.w3.org/2000/svg" p-id="2646" xmlns:xlink="http://www.w3.org/1999/xlink" width="200" height="200"><defs><style type="text/css"></style></defs><path d="M512 720.817493c115.326293 0 208.817493-93.4912 208.817493-208.817493S627.326293 303.182507 512 303.182507 303.182507 396.673707 303.182507 512s93.4912 208.817493 208.817493 208.817493zM512 955.733333c245.067093 0 443.733333-198.66624 443.733333-443.733333S757.067093 68.266667 512 68.266667 68.266667 266.932907 68.266667 512s198.66624 443.733333 443.733333 443.733333z m0-52.200106C295.76192 903.533227 120.466773 728.234667 120.466773 512S295.76192 120.4736 512 120.4736c216.234667 0 391.533227 175.291733 391.533227 391.5264S728.234667 903.533227 512 903.533227z" fill="#499DF1" p-id="2647"></path></svg>