<?xml version="1.0" standalone="no"?><!DOCTYPE svg PUBLIC "-//W3C//DTD SVG 1.1//EN" "http://www.w3.org/Graphics/SVG/1.1/DTD/svg11.dtd"><svg t="1512721087397" class="icon" style="" viewBox="0 0 1024 1024" version="1.1" xmlns="http://www.w3.org/2000/svg" p-id="2618" xmlns:xlink="http://www.w3.org/1999/xlink" width="48" height="48"><defs><style type="text/css"></style></defs><path d="M538.389 883.266H38.755c-5.503 0-10.717-2.444-14.239-6.67s-4.979-9.802-3.991-15.215c1.294-7.05 34.324-172.902 268.366-221.056 14.004-5.671 28.466-16.876 28.466-32.03 0-19.64 2.468-52.94 3.594-67.143-8.591-12.812-28.79-45.221-41.838-84.777-26.533-13.655-52.506-52.94-50.248-92.346 0.138-2.366 0.722-4.69 1.734-6.833l2.667-5.696c4.22-9.06 6.02-12.932 10.145-17.207 0.198-10.578-1.3-35.353-2.541-55.842-3.745-61.905-5.762-103.773 0.175-120.913 11.192-32.344 79.154-108.247 131.54-119.89 47.864-10.64 129.053-5.166 132.503-4.926A18.53 18.53 0 0 1 522.121 48.4c0.072 0.253 1.577 6.545 8.38 9.995 30.465 15.437 87.15 44.18 102.383 118.794 0.234 1.15 0.355 2.324 0.373 3.492 0.789 69.04-3.45 116.675-5.6 136.104 5.558 4.877 9.917 11.65 13.92 24.456 17.232 55.144-11.084 78.016-31.765 94.718l-2.36 1.914c-2.197 4.19-5.84 16.262-8.543 25.239-9.374 31.12-19.05 63.23-41.067 71.466-4.498 10.759-6.22 49.37-1.542 92.917 1.096 10.181-6.261 19.314-16.442 20.41-10.007 1.084-19.315-6.261-20.41-16.442-12.716-118.24 14.106-129 24.931-131.553 6.509-5.9 14.932-33.872 19.032-47.485 7.14-23.68 10.933-35.365 19.23-42.15l3.871-3.143c18.96-15.311 29.393-23.74 19.676-54.825-1.963-6.28-3.257-7.983-3.312-8.05-2.811-1.685-7.718-4.852-11.337-12.09a18.57 18.57 0 0 1-1.776-10.897c0.085-0.517 7.315-52.614 6.442-138.337-12.125-55.818-54.397-77.24-82.465-91.467-11.927-6.044-18.905-14.829-22.945-22.39-23.637-1.078-77.462-2.505-110.167 4.762-38.87 8.64-97.342 75.012-104.549 95.837-3.956 11.578-0.21 73.356 1.794 106.549 3.944 65.155 4.45 73.524-5.412 81.743-1.114 0.927-1.74 1.414-2.252 1.92-0.078 0.265-1.668 3.673-3.342 7.28l-1.065 2.275c0.283 26.19 21.174 52.223 32.668 54.963a18.523 18.523 0 0 1 13.486 12.794c14.107 47.979 42.687 87.529 42.982 87.914a18.574 18.574 0 0 1 3.498 12.505c-0.042 0.47-4.004 47.335-4.004 70.671 0 28.827-20.554 54.572-53.65 67.185-0.951 0.361-1.927 0.644-2.92 0.843C134.888 709.352 80.472 803.1 63.747 846.185h474.654c10.235 0 18.531 8.296 18.531 18.531s-8.308 18.55-18.543 18.55z" fill="" p-id="2619"></path><path d="M746.043 931.69c-104.622 0-189.725-85.108-189.725-189.723s85.109-189.725 189.725-189.725 189.724 85.109 189.724 189.725S850.664 931.69 746.043 931.69z m0-342.378c-84.176 0-152.655 68.48-152.655 152.655s68.48 152.654 152.655 152.654 152.654-68.48 152.654-152.654-68.48-152.655-152.654-152.655z" fill="" p-id="2620"></path><path d="M985.245 1003.217a18.492 18.492 0 0 1-13.107-5.431l-119.95-119.95c-7.244-7.243-7.244-18.972 0-26.209 7.242-7.242 18.97-7.242 26.207 0l119.95 119.95c7.244 7.244 7.244 18.972 0 26.209a18.457 18.457 0 0 1-13.1 5.43z" fill="" p-id="2621"></path></svg>