<?xml version="1.0" encoding="utf-8"?>
<!-- Generator: Adobe Illustrator 21.0.0, SVG Export Plug-In . SVG Version: 6.00 Build 0)  -->
<svg version="1.1" id="图层_1" xmlns="http://www.w3.org/2000/svg" xmlns:xlink="http://www.w3.org/1999/xlink" x="0px" y="0px"
	 viewBox="0 0 1024 1024" style="enable-background:new 0 0 1024 1024;" xml:space="preserve">
<path d="M709.4,524.4H651c-50.1,0-90.6,49.2-90.6,109.9v7.1c0,24.8,40.6,24.8,90.6,24.8h58.5c50,0,90.6-0.9,90.6-24.8v-7.1
	C800.1,573.6,759.5,524.4,709.4,524.4L709.4,524.4z"/>
<path d="M748.4,429.5c0-38.6-30.5-69.9-68.2-69.9c-37.7,0-68.2,31.3-68.2,69.9c0,38.6,30.5,69.9,68.2,69.9
	C717.9,499.4,748.4,468.1,748.4,429.5L748.4,429.5z"/>
<path d="M734.5,467.7"/>
<path d="M782.2,796.6H235.9c-70,0-126.9-56.9-126.9-126.9V354.9c0-70,56.9-126.9,126.9-126.9h546.2c70,0,126.9,56.9,126.9,126.9
	v314.8C909,739.7,852.1,796.6,782.2,796.6z M235.9,288.4c-36.7,0-66.5,29.8-66.5,66.5v314.8c0,36.6,29.8,66.5,66.5,66.5h546.2
	c36.7,0,66.5-29.8,66.5-66.5V354.9c0-36.7-29.8-66.5-66.5-66.5H235.9z"/>
<path d="M460.7,438.1H266.1c-16.7,0-30.2-13.5-30.2-30.2c0-16.7,13.5-30.2,30.2-30.2h194.6c16.7,0,30.2,13.5,30.2,30.2
	C490.9,424.6,477.4,438.1,460.7,438.1z"/>
<path d="M460.7,550.9H266.1c-16.7,0-30.2-13.5-30.2-30.2s13.5-30.2,30.2-30.2h194.6c16.7,0,30.2,13.5,30.2,30.2
	S477.4,550.9,460.7,550.9z"/>
<path d="M417.6,663.7H266.1c-16.7,0-30.2-13.5-30.2-30.2c0-16.7,13.5-30.2,30.2-30.2h151.4c16.7,0,30.2,13.5,30.2,30.2
	C447.8,650.2,434.3,663.7,417.6,663.7z"/>
</svg>
