<?xml version="1.0" encoding="utf-8"?>
<!-- Generator: Adobe Illustrator 21.0.0, SVG Export Plug-In . SVG Version: 6.00 Build 0)  -->
<svg version="1.1" id="图层_1" xmlns="http://www.w3.org/2000/svg" xmlns:xlink="http://www.w3.org/1999/xlink" x="0px" y="0px"
	 viewBox="0 0 1024 1024" style="enable-background:new 0 0 1024 1024;" xml:space="preserve">
<path d="M702.3,913.3l-387.3,0c-60.6,0-113.8-50.7-113.8-108.4V596l-61.7-49.8c-41-41.6-39.4-105.9,3.7-149.6l2.6-2.4l289-253.1
	c40.3-40.4,108.4-40.4,150.2,1.4l292.3,260.1c43.3,43.8,42.9,108.1,0.6,151l-6.2,5.3l-64.8,46.8v199.3
	C806.9,864.6,760,913.3,702.3,913.3z M182.4,501.7l80.6,64.7v238.5c0,23.5,25.7,46.6,51.9,46.6l387.3,0c23.6,0,42.9-20.9,42.9-46.6
	V574l89.7-64.7c17.4-18.4,17.4-44.2,0-61.9L542.6,187.4c-19-18.9-47.9-19-65.6-1.2L186.5,440.7C168.6,458.9,166.7,484.5,182.4,501.7
	z"/>
<path d="M589.7,418.3L589.7,418.3c-31.3,0.3-60.7,14.7-79.9,39.3c-19.3-24.6-48.7-39-79.9-39.3c-58.8,0-106.7,52.2-106.7,116.3
	c0,38.1,16.9,64.6,30.4,85.9c38.9,61.1,136.5,136.8,140.6,140.1c9.2,7.2,22.1,7.2,31.2,0c4.1-3.3,101.6-78.8,140.6-140.1
	c13.5-21.3,30.4-47.7,30.4-85.9C696.4,470.4,648.5,418.3,589.7,418.3z M595.9,593.7c0,11.8-9.5,21.3-21.3,21.3h-43.3v48.9
	c0,11-9,20-20,20h-3.1c-11,0-20-9-20-20v-48.9h-43.3c-11.8,0-21.3-9.5-21.3-21.3v-3.3c0-11.8,9.5-21.3,21.3-21.3h43.3v-48.9
	c0-11,9-20,20-20h3.1c11,0,20,9,20,20v48.9h43.3c11.8,0,21.3,9.5,21.3,21.3V593.7z"/>
</svg>
