<?xml version="1.0" standalone="no"?><!DOCTYPE svg PUBLIC "-//W3C//DTD SVG 1.1//EN" "http://www.w3.org/Graphics/SVG/1.1/DTD/svg11.dtd"><svg t="1511272139690" class="icon" style="" viewBox="0 0 1024 1024" version="1.1" xmlns="http://www.w3.org/2000/svg" p-id="1526" xmlns:xlink="http://www.w3.org/1999/xlink" width="200" height="200"><defs><style type="text/css"></style></defs><path d="M512 0C229.218 0 0 229.218 0 512s229.218 512 512 512 512-229.218 512-512S794.782 0 512 0zM512 944c-238.594 0-432-193.406-432-432S273.406 80 512 80s432 193.406 432 432S750.594 944 512 944z" p-id="1527"></path><path d="M654.25 767.938c11.406 0.032 113.75-75.656 113.75-85.312s-114.532-81.812-124.438-81.812-43.156 39.876-52.124 44.312c-9 4.438-65 2.844-127.406-59.562-62.438-62.376-83.75-134.218-83.75-145.5s52.062-46.124 53.5-54.312S365.156 256 353.782 256 256 361 256 369.75s7.906 121.312 150.438 263.812S642.844 767.876 654.25 767.938z" p-id="1528"></path></svg>