<?xml version="1.0" standalone="no"?><!DOCTYPE svg PUBLIC "-//W3C//DTD SVG 1.1//EN" "http://www.w3.org/Graphics/SVG/1.1/DTD/svg11.dtd"><svg t="1510556886609" class="icon" style="" viewBox="0 0 1024 1024" version="1.1" xmlns="http://www.w3.org/2000/svg" p-id="8371" xmlns:xlink="http://www.w3.org/1999/xlink" width="200" height="200"><defs><style type="text/css"></style></defs><path d="M238.392694 592.313145l543.446826 0c6.181251 0 12.362698 6.181251 12.362698 12.362698l0 46.359774c0 6.181251-6.181251 12.362698-12.362698 12.362698L235.302265 663.398315c-6.181251 0-12.362698-6.181251-12.362698-12.362698l0-46.359774C226.030192 598.494396 232.211443 592.313145 238.392694 592.313145zM238.392694 782.226135l543.446826 0c6.181251 0 12.362698 6.181251 12.362698 12.362698l0 46.359774c0 6.181447-6.181251 12.362698-12.362698 12.362698L238.392694 853.311305c-6.181251 0-12.362698-6.181251-12.362698-12.362698l0-46.359774C226.030192 788.407386 232.211443 782.226135 238.392694 782.226135zM905.019112 844.73952c0 43.269149 0 88.998644 0 119.905094-30.906647 0-68.440754 0-117.89135 0L236.991922 964.644614c-55.63165 0-121.918839 0-121.918839 0 0-12.362501 0-70.454695 0-119.905094l0-642.855387c0-40.178523 0-99.277392 0-120.911967 15.453324 0 69.377617 0 121.918839 0l457.416291 0 67.994348-64.527129L144.272375 16.445037c-49.450399 0-92.719548 40.178523-92.719548 92.719548l0 822.113035c0 49.450399 40.178523 92.719548 92.719548 92.719548l732.484309 0c49.450399 0 92.719548-40.178523 92.719548-92.719548L969.476232 272.969107l-63.520257 67.994348L905.019112 844.73952zM842.759412 62.804811c6.181447-9.271876 15.453324-21.634574 21.634574-27.815825 15.453324-15.453324 37.087898-12.362698 49.450399-9.271876 12.362501 6.181251 33.997076 21.634574 46.359774 40.178523 6.181251 12.362698 12.362501 27.815825 0 46.359774-12.362698 15.453324-21.634574 27.815825-21.634574 27.815825L842.759412 62.804811zM811.852961 102.983334c0 0-158.84017 217.492436-171.202868 232.94576-6.181251 9.272073-9.271876 15.453324-12.362698 24.7252-3.090625 12.362698-12.362698 71.084974-15.453324 86.538297 0 15.453324 6.181251 21.634574 21.634574 18.543949 15.453324-3.090625 67.994348-27.815825 83.447475-40.178523 9.271876-6.181251 15.453324-12.362698 21.634574-18.543949 9.271876-9.271876 168.112046-229.855134 168.112046-229.855134L811.852961 102.983334z" p-id="8372"></path><path d="M521.103131 300.321755l-95.772667 0 0-95.772667c0-19.543387-15.990136-35.533523-35.533523-35.533523l-0.017117 0c-19.543387 0-35.533523 15.990136-35.533523 35.533523l0 95.772667-95.772667 0c-19.543387 0-35.533523 15.990136-35.533523 35.533523l0 0.017117c0 19.543387 15.990136 35.533523 35.533523 35.533523l95.772667 0 0 95.772667c0 19.543387 15.990136 35.533523 35.533523 35.533523l0.017117 0c19.543387 0 35.533523-15.990136 35.533523-35.533523l0-95.772667 95.772667 0c19.543387 0 35.533523-15.990136 35.533523-35.533523l0-0.017117C556.637661 316.31189 540.647525 300.321755 521.103131 300.321755z" p-id="8373"></path></svg>