<?xml version="1.0" encoding="utf-8"?>
<!-- Generator: Adobe Illustrator 21.0.0, SVG Export Plug-In . SVG Version: 6.00 Build 0)  -->
<svg version="1.1" xmlns="http://www.w3.org/2000/svg" xmlns:xlink="http://www.w3.org/1999/xlink" x="0px" y="0px"
	 viewBox="0 0 1024 1024" style="enable-background:new 0 0 1024 1024;" xml:space="preserve">
	<rect x="296.3" y="311.9" class="st0" width="437.2" height="471.4"  fill="#574544"/>
	<path class="st1" d="M599.6,598.1l-88,13.7l-87.1-13.7C280,598.1,162,716.2,162,860.5v85.4h700v-85.4
		C862,716.2,744,598.1,599.6,598.1z" fill="#FFF9F3"/>
	<path class="st2" d="M681.7,767.2h-334V608c-26.1,6.8-50.1,19.3-70.4,36V946h475.4V651c-20.1-18.6-44.3-32.7-71-41L681.7,767.2
		L681.7,767.2z" fill="#FFCFCF"/>
	<rect x="433.5" y="409.7" class="st3" width="156.8" height="218.1" fill="#FFE2BD"/>
	<path class="st4" d="M311.2,385.4c-33.8,19.7-90-121,0-115.4C401.3,275.5,311.2,385.4,311.2,385.4L311.2,385.4z M705.6,385.4
		c33.8,19.7,90.1-121,0-115.4C615.5,275.5,705.6,385.4,705.6,385.4L705.6,385.4z" fill="#FFEFCF"/>
	<path class="st4" d="M726.2,311.9c0,118.7-96.3,247.2-214.9,247.2c-118.7,0-214.9-128.5-214.9-247.2S392.6,97,511.3,97
		C630,97,726.2,193.2,726.2,311.9L726.2,311.9z" fill="#FFEFCF"/>
	<path class="st5" d="M451.8,660.5" fill="#E5EAF9"/>
	<path class="st6" d="M449.4,654.7" fill="#F3F7FF"/>
	<path class="st5" d="M572.1,666.1" fill="#E5EAF9"/>
	<path class="st6" d="M574.4,660.3" fill="#F3F7FF"/>
	<path class="st7" d="M589.3,509.9" fill="#F4C7A8"/>
	<path class="st2" d="M512.2,608.1c0,0,25.6,43.2,89.5,55.9c0,0,32.9-43.7,30.5-70.4L512.2,608.1z" fill="#FFCFCF"/>
	<path class="st2" d="M512.2,608.1c0,0-25.6,43.2-89.5,55.9c0,0-32.9-43.7-30.5-70.4L512.2,608.1z" fill="#FFCFCF"/>
	<path class="st0" d="M730.9,288.7C725.6,172,629.3,79,511.2,79c-116.5,0-211.8,90.5-219.4,205c114.6,62.6,177.8-96.8,177.8-96.8
		C570.4,320.6,694.2,298.9,730.9,288.7z" fill="#574544"/>
	<path class="st2" d="M500.1,649.4c0,3.9,2.1,7.7,5.6,9.6c3.4,2,7.7,2,11.1,0s5.6-5.7,5.6-9.6s-2.1-7.6-5.6-9.6c-3.4-2-7.7-2-11.1,0
		C502.3,641.7,500.1,645.4,500.1,649.4L500.1,649.4z" fill="#FFCFCF"/>
	<path class="st2" d="M500.1,692.1c0,3.9,2.1,7.6,5.6,9.6c3.4,2,7.7,2,11.1,0c3.4-2,5.6-5.7,5.6-9.6c0-6.1-5-11.1-11.1-11.1
		C505.1,681,500.1,686,500.1,692.1L500.1,692.1z" fill="#FFCFCF"/>
	<path class="st2" d="M500.1,735.6c0,3.9,2.1,7.6,5.6,9.6c3.4,2,7.7,2,11.1,0s5.6-5.7,5.6-9.6c0-6.1-5-11.1-11.1-11.1
		C505.1,724.4,500.1,729.4,500.1,735.6L500.1,735.6z" fill="#FFCFCF"/>
</svg>
