<?xml version="1.0" encoding="utf-8"?>
<!-- Generator: Adobe Illustrator 21.0.0, SVG Export Plug-In . SVG Version: 6.00 Build 0)  -->
<svg version="1.1" id="图层_1" xmlns="http://www.w3.org/2000/svg" xmlns:xlink="http://www.w3.org/1999/xlink" x="0px" y="0px"
	 viewBox="0 0 1024 1024" style="enable-background:new 0 0 1024 1024;" xml:space="preserve">
<path d="M599.6,967.5H419.1c-173.1,0-309.8,0-309.8-81.8v-16c0-151.4,138.9-274.6,309.8-274.6h180.5
	c170.8,0,309.8,123.2,309.8,274.6v16C909.4,967.5,758.9,967.5,599.6,967.5z M419.1,646.1c-137.6,0-249.5,100.3-249.5,223.6v16
	c0,30.8,144.2,30.8,249.5,30.8h180.5c87.2,0,249.5,0,249.5-30.8v-16c0-123.3-111.9-223.6-249.5-223.6H419.1z"/>
<path d="M506.9,649.3c-148.2,0-269.5-115.7-270.5-257.9c-0.1-16.7,13.3-30.2,29.9-30.4c0.1,0,0.2,0,0.2,0c16.6,0,30,13.4,30.1,29.9
	c0.7,107.4,97,198.1,210.3,198.1c113.4,0,209.7-90.8,210.3-198.4c0.1-16.6,12.5-30.3,30.3-30c16.6,0.1,30.1,13.7,30,30.3
	C776.6,533.5,655.3,649.3,506.9,649.3z"/>
<path d="M509.4,311.1c-16.4,0-29.8-13.3-29.8-29.8V167.7c0-16.4,13.3-29.8,29.8-29.8c16.4,0,29.8,13.3,29.8,29.8v113.6
	C539.1,297.8,525.8,311.1,509.4,311.1L509.4,311.1z"/>
<path d="M566.2,254.3H452.6c-16.4,0-29.8-13.3-29.8-29.8c0-16.4,13.3-29.8,29.8-29.8h113.6c16.4,0,29.8,13.3,29.8,29.8
	C595.9,240.9,582.6,254.3,566.2,254.3L566.2,254.3z M566.2,254.3"/>
<path d="M219.3,421c-7.1,0-14-2.5-19.4-7.1c-6.8-5.7-10.7-14.2-10.7-23V252.8c0-58.4,31.5-112.1,80.2-136.9
	c56.6-28.7,126.4-59.4,238.2-59.4c109,0,198.8,29,242.6,53.9c46.4,26.3,74.9,78,74.5,135l-1.1,145.8c-0.1,8.8-4,17.2-10.8,22.9
	c-6.8,5.7-15.7,8.1-24.4,6.6c-1.5-0.3-153.5-25.9-282-25.9c-128.6,0-280.6,25.7-282.1,25.9C222.6,420.9,220.9,421,219.3,421z
	 M506.4,334.4c96.9,0,203.5,13.5,257.2,21.3l0.8-110.8c0.2-34.6-17-66.8-44-82.1c-40.3-22.9-121.8-46-212.9-46
	c-98.5,0-158.2,26.1-210.9,52.9c-28.7,14.6-47.2,47.2-47.2,83.1v102.9C303.2,347.8,409.6,334.4,506.4,334.4z"/>
</svg>
